<svg xmlns="http://www.w3.org/2000/svg" width="75.999" height="31.001" viewBox="0 0 75.999 31.001"><defs><style>.a{fill:#40b4e5;}</style></defs><g transform="translate(-1182.983 -1116.137)"><path class="a" d="M1237.593,1145.306l4.619-.59.025.192-.485.186a24.6,24.6,0,0,0,6.563-1.586h-1.125c.223-.316.313-.575.47-.644.8-.349,1.632-.6,2.418-.975a14.005,14.005,0,0,0,5.2-3.562,10.29,10.29,0,0,0,1.753-2.7,3.244,3.244,0,0,0-.347-3.469,12.547,12.547,0,0,0-3.864-3.046c-1.347-.767-2.757-1.4-4.1-2.166a25.106,25.106,0,0,0-6.18-2.109,33.368,33.368,0,0,0-3.378-.807c-3.494-.562-6.991-1.1-10.5-1.551a3.076,3.076,0,0,0-2.227.085c-.065.042-.224-.119-.346-.161a1.6,1.6,0,0,0-.6-.159,68.357,68.357,0,0,1-7.509-.181c-2.437-.06-4.876,0-7.313.024-1.107.013-2.215.055-3.319.134-1.256.09-2.509.243-3.764.358-1.476.135-2.959.195-4.427.4-2.615.364-5.225.786-7.83,1.238a22.94,22.94,0,0,0-2.523.707,3.063,3.063,0,0,0-1.813,1.249,36.073,36.073,0,0,0-2.3,3.794,4.612,4.612,0,0,0,.975,5.553,16.843,16.843,0,0,0,4.75,3.086,74.56,74.56,0,0,0,10.217,3.553q4.58,1.2,9.2,2.191a33.961,33.961,0,0,0,4.618.6c3.35.248,6.7.415,10.057.62.131.008.259.064.393.306-.769.061-1.536.147-2.306.177-.791.03-1.583.007-2.541.007l.353.56c-.42.034-.809.09-1.2.094a50.538,50.538,0,0,1-11.8-1.5c-3.393-.776-6.774-1.665-10.1-2.734-2.98-.956-5.911-2.134-8.8-3.388a10.767,10.767,0,0,1-4.592-3.729,5.775,5.775,0,0,1-.833-4.359,11.2,11.2,0,0,1,1.795-4.3c-.644-.127-.869.552-1.444.723a3.215,3.215,0,0,1,.333-.757,6.113,6.113,0,0,1,.975-.941c.958-.706,1.936-1.381,2.914-2.053a33.562,33.562,0,0,1,9.3-4.716,47.458,47.458,0,0,1,11.415-2.355c2.376-.109,4.749-.285,7.124-.431a.6.6,0,0,0,.107-.019c.389-.1.618.606,1.01.3.407-.319.673.085,1,.143.637.112,1.269.253,1.908.377.337.017.669.04,1,.062q0-.1-.006-.2l-1.016.161-.889-.637c2.168.108,4.266.114,6.346.339,3.591.388,7.174.882,10.752,1.4a34.8,34.8,0,0,1,3.495.823c1.407.354,2.816.7,4.212,1.1a8.553,8.553,0,0,1,4.712,2.877c-.417-.208-.838-.407-1.25-.625a36.768,36.768,0,0,0-7.48-2.446,60.164,60.164,0,0,0-10.424-1.544c-1.8-.181-3.593-.383-5.392-.53-1.942-.159-3.886-.349-5.831-.37-1.975-.022-3.952.122-5.927.234a49.341,49.341,0,0,0-10.507,1.444,36.834,36.834,0,0,0-9.589,3.8c.6-.069,1.2-.112,1.79-.213,2.1-.357,4.2-.815,6.309-1.081,2.391-.3,4.8-.441,7.2-.644,1.577-.133,3.154-.286,4.733-.371,1.264-.068,2.532-.081,3.8-.057,2.563.047,5.13.049,7.686.232,2.588.185,5.166.558,7.746.864,1.362.161,2.718.391,4.082.526a49.092,49.092,0,0,1,9.887,1.881,20.317,20.317,0,0,1,4.353,1.7,29.32,29.32,0,0,0,3.066,1.442,14.453,14.453,0,0,1,3.922,2.694,9.616,9.616,0,0,1,2.166,2.448,4.562,4.562,0,0,1,.107,3.994,11.836,11.836,0,0,1-2.8,3.94c-1.938,2.02-4.382,2.921-6.831,3.753a44.4,44.4,0,0,1-10.824,2.3c-2.073.163-4.139.432-6.207.66-.318.035-.633.108-1.223.212.289-.317.407-.545.57-.6.192-.063.45.073.427-.324.614.554,1.153.134,1.7-.261h-1.821l.026.044a8.746,8.746,0,0,1,1-.217c1.667-.17,3.337-.321,5.005-.479l-.686.585.635-.049C1237.563,1145.62,1237.578,1145.463,1237.593,1145.306Zm2.564-.012-.034.177.854-.074c0-.034,0-.069-.005-.1Zm-1.506.269c0,.022,0,.044,0,.066h.553l-.006-.122Z" transform="translate(0 0)"/><path class="a" d="M1603.171,1361.1l-3.881-.147q0-.147.008-.294c1.243.166,2.487-.23,3.729.182l-.029-.045Z" transform="translate(-371.298 -214.839)"/><path class="a" d="M1576.417,1359.81c-.565.4-.565.4-1.49.091.373-.042.588-.077.8-.088S1576.188,1359.81,1576.417,1359.81Z" transform="translate(-349.42 -214.104)"/></g></svg>