<svg xmlns="http://www.w3.org/2000/svg" width="93.696" height="25.325" viewBox="0 0 93.696 25.325"><defs><style>.a{fill:#40b4e5;}</style></defs><g transform="translate(-1182.983 -1116.138)"><path class="a" d="M1250.31,1139.965l5.695-.482.031.157-.6.152a43.538,43.538,0,0,0,8.092-1.3h-1.387c.275-.258.386-.47.579-.526.984-.285,2.012-.489,2.981-.8a19.288,19.288,0,0,0,6.412-2.91,9.021,9.021,0,0,0,2.161-2.206,1.96,1.96,0,0,0-.428-2.833,16.191,16.191,0,0,0-4.764-2.488c-1.66-.627-3.4-1.14-5.058-1.769a42.572,42.572,0,0,0-7.618-1.723c-1.38-.247-2.762-.51-4.164-.659-4.307-.459-8.619-.9-12.941-1.267a5.609,5.609,0,0,0-2.745.07c-.081.034-.276-.1-.426-.131a2.8,2.8,0,0,0-.738-.13c-3.094.175-6.172-.1-9.258-.148-3-.049-6.011,0-9.017.019q-2.047.016-4.092.109c-1.549.074-3.093.2-4.641.292-1.819.11-3.648.159-5.458.326-3.224.3-6.442.642-9.653,1.011-1.052.121-2.076.375-3.11.578a4.169,4.169,0,0,0-2.235,1.02,30.38,30.38,0,0,0-2.832,3.1c-1.007,1.391-.973,3.229,1.2,4.536a23.8,23.8,0,0,0,5.856,2.521,126.287,126.287,0,0,0,12.6,2.9q5.647.979,11.346,1.79c1.872.266,3.788.4,5.693.492,4.13.2,8.265.339,12.4.507a.613.613,0,0,1,.485.25c-.948.05-1.894.12-2.843.144-.975.025-1.952.006-3.133.006l.435.457c-.518.028-1,.073-1.477.077a92.6,92.6,0,0,1-14.553-1.229c-4.183-.634-8.352-1.36-12.454-2.233-3.673-.781-7.286-1.743-10.851-2.768a13.643,13.643,0,0,1-5.661-3.047,3.476,3.476,0,0,1-1.027-3.561,7.894,7.894,0,0,1,2.212-3.516c-.794-.1-1.071.451-1.781.591a2.323,2.323,0,0,1,.41-.619,7.088,7.088,0,0,1,1.2-.768c1.182-.577,2.386-1.128,3.592-1.678a51.879,51.879,0,0,1,11.464-3.852,85.1,85.1,0,0,1,14.073-1.924c2.929-.089,5.855-.233,8.783-.352a1.079,1.079,0,0,0,.132-.015c.479-.08.762.5,1.245.245.5-.261.829.07,1.235.117.785.092,1.565.207,2.352.308.415.014.825.032,1.234.05q0-.079-.008-.159l-1.252.132-1.1-.521c2.673.089,5.26.093,7.824.277,4.427.317,8.844.72,13.256,1.141,1.451.138,2.877.433,4.309.673,1.734.289,3.471.573,5.193.9a12.284,12.284,0,0,1,5.809,2.35c-.514-.17-1.033-.332-1.541-.511a62.868,62.868,0,0,0-9.222-2,109.871,109.871,0,0,0-12.852-1.261c-2.215-.148-4.43-.312-6.648-.432-2.394-.13-4.792-.285-7.189-.3-2.435-.018-4.873.1-7.307.191a90.231,90.231,0,0,0-12.953,1.179,60.7,60.7,0,0,0-11.822,3.106c.736-.057,1.476-.092,2.207-.174,2.594-.292,5.174-.665,7.778-.883,2.948-.246,5.916-.36,8.876-.526,1.944-.109,3.888-.234,5.834-.3,1.559-.056,3.122-.066,4.682-.047,3.16.039,6.325.04,9.476.189,3.191.151,6.368.456,9.55.706,1.679.132,3.351.319,5.033.43a88.536,88.536,0,0,1,12.189,1.537,33.65,33.65,0,0,1,5.366,1.388c1.206.468,2.508.807,3.78,1.178a19.918,19.918,0,0,1,4.835,2.2,10.142,10.142,0,0,1,2.671,2,2.631,2.631,0,0,1,.132,3.263,10.941,10.941,0,0,1-3.454,3.218c-2.389,1.65-5.4,2.386-8.423,3.066a79.458,79.458,0,0,1-13.345,1.88c-2.555.133-5.1.353-7.652.539-.392.029-.78.088-1.508.173.356-.259.5-.445.7-.489.236-.052.555.059.527-.265.757.453,1.421.11,2.1-.213h-2.245l.031.036c.409-.061.814-.149,1.227-.177,2.055-.139,4.113-.262,6.171-.391l-.846.478.783-.04C1250.272,1140.222,1250.291,1140.093,1250.31,1139.965Zm3.161-.01-.042.145,1.053-.061c0-.028,0-.056-.007-.084Zm-1.857.22c0,.018,0,.036,0,.054h.682c0-.033-.005-.066-.008-.1Z" transform="translate(0 0)"/><path class="a" d="M1602.538,1361.023l-3.248-.123q0-.123.007-.246c1.04.139,2.081-.193,3.12.152l-.024-.037Z" transform="translate(-359.858 -220.298)"/><path class="a" d="M1576.174,1359.809c-.473.333-.473.333-1.247.076.313-.035.492-.064.673-.074S1575.983,1359.809,1576.174,1359.809Z" transform="translate(-339.181 -219.546)"/></g></svg>