<svg xmlns="http://www.w3.org/2000/svg" width="58.031" height="58.031" viewBox="0 0 58.031 58.031"><defs><style>.a{fill:#fff;}</style></defs><g transform="translate(-138.788 -282.888)"><path class="a" d="M167.8,282.888A29.016,29.016,0,1,0,196.819,311.9,29.016,29.016,0,0,0,167.8,282.888m0,55.75A26.734,26.734,0,1,1,194.538,311.9,26.764,26.764,0,0,1,167.8,338.638" transform="translate(0 0)"/><path class="a" d="M164.245,314v6.781l2.493,1.3,2.494-1.3V314l-2.494-1.3Z" transform="translate(1.065 1.247)"/><path class="a" d="M167.662,286.268a25.5,25.5,0,1,0,25.5,25.5,25.524,25.524,0,0,0-25.5-25.5m7.481,26.821v12l-7.481,3.8-7.481-3.8V311.9l7.481-3.8,7.481,3.8Zm0-13.468v10.254l-4.988-2.535v-5.7l-2.493-1.3-2.493,1.3v5.7l-4.988,2.535V298.433l7.481-3.8,7.481,3.8Z" transform="translate(0.141 0.141)"/></g></svg>