<svg xmlns="http://www.w3.org/2000/svg" width="29.004" height="29" viewBox="0 0 29.004 29"><defs><style>.a{fill:#2d2a26;}</style></defs><g transform="translate(-2359.402 -550.254)"><g transform="translate(2359.402 555.273)"><path class="a" d="M2376.872,631.866a7.5,7.5,0,0,1-5.321-2.2l-9.947-9.945a7.531,7.531,0,0,1,0-10.642l.025-.025a4,4,0,0,1,5.651,0l.672.672a4,4,0,0,1,0,5.651,1.552,1.552,0,0,0,0,2.2l5.744,5.744a1.556,1.556,0,0,0,2.2,0,4,4,0,0,1,5.652,0l.672.672h0a4,4,0,0,1,0,5.65l-.026.026A7.5,7.5,0,0,1,2376.872,631.866Zm-12.418-22.849a2.845,2.845,0,0,0-2.025.837l-.025.025a6.4,6.4,0,0,0,0,9.039l9.947,9.945a6.4,6.4,0,0,0,9.042,0l.026-.026a2.867,2.867,0,0,0,0-4.048l-.672-.672a2.864,2.864,0,0,0-4.05,0,2.689,2.689,0,0,1-3.8,0l-5.745-5.744a2.686,2.686,0,0,1,0-3.8,2.867,2.867,0,0,0,0-4.049l-.673-.672A2.844,2.844,0,0,0,2364.453,609.017Z" transform="translate(-2359.402 -607.885)"/></g><g transform="translate(2377.667 554.333)"><path class="a" d="M2569.687,603.748a.566.566,0,0,1-.4-.966l5.527-5.526a.566.566,0,1,1,.8.8l-5.527,5.526A.564.564,0,0,1,2569.687,603.748Z" transform="translate(-2569.12 -597.09)"/></g><g transform="translate(2372.468 550.254)"><path class="a" d="M2509.991,558.356a.566.566,0,0,1-.566-.566v-6.97a.566.566,0,1,1,1.132,0v6.97A.566.566,0,0,1,2509.991,558.356Z" transform="translate(-2509.425 -550.254)"/></g><g transform="translate(2380.303 565.058)"><path class="a" d="M2606.924,721.361h-6.971a.566.566,0,0,1,0-1.132h6.971a.566.566,0,1,1,0,1.132Z" transform="translate(-2599.387 -720.229)"/></g></g></svg>