<svg xmlns="http://www.w3.org/2000/svg" width="120.339" height="5.165" viewBox="0 0 120.339 5.165"><defs><style>.a{fill:#40b4e5;}</style></defs><g transform="translate(-159.065 -1922.381)"><path class="a" d="M464.209,1924.836a5.888,5.888,0,0,1-3.641-.126A3.657,3.657,0,0,1,464.209,1924.836Z" transform="translate(-248.714 -1.435)"/><path class="a" d="M558.711,1922.381h4c0,.033,0,.065,0,.1h-4Z" transform="translate(-329.733 0)"/><g transform="translate(159.065 1923.386)"><path class="a" d="M233.216,1927.79c-12.676,1.439-25.3,2.1-37.945,2.633-9.623.405-19.271.259-28.878.943-1.725.123-3.477-.142-5.217.094a3.2,3.2,0,0,1-1.32-.19c-.541-.174-.882-.521-.769-1.023a.937.937,0,0,1,.885-.725c.542-.065,1.093-.09,1.641-.12,9.165-.5,18.345-.375,27.523-.429,9.271-.054,18.515-.565,27.765-1.04,3.632-.186,7.261-.317,10.89-.593A33.207,33.207,0,0,1,233.216,1927.79Z" transform="translate(-159.065 -1927.314)"/><path class="a" d="M550.281,1930.607c-3.191-.873-6.147-.361-9.043-.722-5.518-.69-11.01-1.535-16.6-1.87-6.395-.383-12.788-.844-19.2-.857-6.965-.014-13.931-.272-20.9.029a3.241,3.241,0,0,1-2.118-.469c1.836,0,3.165-.05,4.486.008,6.966.305,13.927-.235,20.9-.027,5.952.177,11.912.111,17.848.616,3.46.294,6.936.479,10.4.713a9.619,9.619,0,0,0,3.276-.171c2.894-.833,5.593.085,8.351.477.407.057,1.046.146.926.615C548.361,1929.941,549.744,1929.73,550.281,1930.607Z" transform="translate(-450.021 -1926.606)"/><path class="a" d="M788.073,1939.809a1.631,1.631,0,0,1,1.448.054A1.584,1.584,0,0,1,788.073,1939.809Z" transform="translate(-680.59 -1937.47)"/><path class="a" d="M779.936,1943.765c-.1.095-.2.26-.3.264-.127.006-.264-.126-.4-.2.1-.092.2-.253.3-.258C779.666,1943.567,779.8,1943.694,779.936,1943.765Z" transform="translate(-673.924 -1940.757)"/><path class="a" d="M838.527,1949.522c-.145.007-.331.06-.425.008-.158-.086-.114-.225.065-.3a.43.43,0,0,1,.235-.007C838.608,1949.278,838.647,1949.383,838.527,1949.522Z" transform="translate(-718.256 -1945.435)"/></g><path class="a" d="M660.716,1925.336c.158.031.379.022.458.1.1.1-.046.2-.278.183-.161-.015-.381-.013-.461-.091C660.337,1925.432,660.487,1925.333,660.716,1925.336Z" transform="translate(-412.96 -2.229)"/></g></svg>