<svg xmlns="http://www.w3.org/2000/svg" width="30.941" height="30.2" viewBox="0 0 30.941 30.2"><defs><style>.a,.b{fill:none;stroke:#2d2a26;stroke-linejoin:round;stroke-width:1.2px;}.b{stroke-linecap:round;}</style></defs><g transform="translate(0.6 0.6)"><ellipse class="a" cx="10.524" cy="10.524" rx="10.524" ry="10.524" transform="translate(0 0)"/><path class="b" d="M56.182,62.053a7.421,7.421,0,0,1,5.775-5.847" transform="translate(-53.082 -53.088)"/><path class="a" d="M80.563,77.339l7.413,7.413a1.573,1.573,0,0,1,0,2.224h0a1.573,1.573,0,0,1-2.224,0l-7.413-7.413a1.573,1.573,0,0,1,0-2.224h0A1.573,1.573,0,0,1,80.563,77.339Z" transform="translate(-58.695 -58.436)"/><line class="a" x2="1.566" y2="1.566" transform="translate(18.078 17.336)"/></g></svg>