<svg xmlns="http://www.w3.org/2000/svg" width="41.718" height="42.763" viewBox="0 0 41.718 42.763"><defs><style>.a{fill:#fff;}</style></defs><g transform="translate(418.653 -229.494)"><path class="a" d="M-387.016,249.055c3.007,0,6.015.018,9.021-.015.619-.007.839.157.9.787.557,5.532-.284,10.743-3.83,15.2a18.785,18.785,0,0,1-13.56,7.121,21.49,21.49,0,0,1-16.059-4.7c-5.9-4.783-8.7-11.05-8.009-18.629a21.5,21.5,0,0,1,17.661-18.937,20.545,20.545,0,0,1,18.108,5.005c.451.4.427.627,0,1.025-1.075,1.015-2.135,2.05-3.134,3.138-.447.487-.684.283-1.05-.037a14.762,14.762,0,0,0-11.629-3.589,15.2,15.2,0,0,0-13.179,11.341,15.407,15.407,0,0,0,10.685,19.05c5.569,1.471,10.727.5,14.969-3.7a11.807,11.807,0,0,0,3.1-6.859c.043-.272-.065-.332-.294-.326-.164,0-.329,0-.493,0-4.135,0-8.27-.012-12.4.014-.6,0-.751-.173-.736-.748.039-1.453.053-2.909,0-4.36-.027-.684.223-.8.835-.792C-393.078,249.07-390.047,249.055-387.016,249.055Z" transform="translate(0 0)"/></g></svg>