<svg xmlns="http://www.w3.org/2000/svg" width="32.303" height="32.303" viewBox="0 0 32.303 32.303"><defs><style>.a{fill:#fff;}</style></defs><g transform="translate(7.815 7.75)"><path class="a" d="M529.054,1250.66a5.341,5.341,0,1,1,5.341-5.341A5.365,5.365,0,0,1,529.054,1250.66Zm0-13.677a8.336,8.336,0,1,0,8.337,8.336A8.352,8.352,0,0,0,529.054,1236.983Z" transform="translate(-520.718 -1236.983)"/></g><g transform="translate(22.924 5.666)"><circle class="a" cx="1.889" cy="1.889" r="1.889"/></g><path class="a" d="M542.34,1252.093a6.362,6.362,0,0,1-1.889,4.754,6.731,6.731,0,0,1-4.754,1.693H522.411a6.735,6.735,0,0,1-4.754-1.693,6.55,6.55,0,0,1-1.758-4.82v-13.35a6.5,6.5,0,0,1,1.758-4.755,6.624,6.624,0,0,1,4.754-1.693h13.416a6.5,6.5,0,0,1,4.755,1.758,6.723,6.723,0,0,1,1.758,4.69Zm.261-20.19a9.279,9.279,0,0,0-6.839-2.67H522.346c-5.666,0-9.443,3.778-9.443,9.444v13.35a9.374,9.374,0,0,0,2.735,6.969,9.507,9.507,0,0,0,6.773,2.54H535.7a9.615,9.615,0,0,0,6.838-2.54,9.321,9.321,0,0,0,2.671-6.9v-13.416A9.34,9.34,0,0,0,542.6,1231.9Z" transform="translate(-512.903 -1229.233)"/></svg>