<svg xmlns="http://www.w3.org/2000/svg" width="31.332" height="31.242" viewBox="0 0 31.332 31.242"><defs><style>.a{fill:#fff;}</style></defs><path class="a" d="M485.7,1247.957a12.823,12.823,0,0,0-.822-4.338,5.775,5.775,0,0,0-3.584-3.48,10.1,10.1,0,0,0-3.566-.495,7.253,7.253,0,0,0-3.464.92,6.2,6.2,0,0,0-2.388,2.312c-.031.052-.042.14-.127.12-.1-.025-.055-.119-.055-.181,0-.809-.01-1.618,0-2.427,0-.2-.061-.249-.253-.248-1.891.006-3.781,0-5.672,0-.278,0-.279,0-.279.276v10.14q0,5.091,0,10.182c0,.2.036.265.253.264q2.974-.015,5.95,0c.23,0,.263-.071.263-.276q-.01-5.091,0-10.182a8.647,8.647,0,0,1,.427-2.978,3.123,3.123,0,0,1,1.832-1.975,4.672,4.672,0,0,1,2.047-.263,3,3,0,0,1,1.564.527,2.961,2.961,0,0,1,1.09,1.623,9.381,9.381,0,0,1,.33,2.779q0,5.253,0,10.505c0,.185.041.239.234.238q3.03-.012,6.058,0c.182,0,.223-.048.222-.225-.007-1.64,0-3.28-.006-4.919C485.73,1253.225,485.8,1250.59,485.7,1247.957Z" transform="translate(-454.423 -1229.764)"/><path class="a" d="M461.4,1240.4c0-.2-.042-.266-.256-.265q-2.985.014-5.97,0c-.2,0-.245.053-.245.248q.008,10.19,0,20.379c0,.18.032.24.23.238q2.985-.012,5.97,0c.211,0,.273-.043.273-.265q-.014-5.069-.006-10.136Q461.4,1245.5,461.4,1240.4Z" transform="translate(-454.423 -1229.764)"/><path class="a" d="M458.187,1229.764a3.768,3.768,0,1,0,3.773,3.762A3.759,3.759,0,0,0,458.187,1229.764Z" transform="translate(-454.423 -1229.764)"/></svg>