<svg xmlns="http://www.w3.org/2000/svg" width="38.041" height="42.24" viewBox="0 0 38.041 42.24"><defs><style>.a{fill:#fff;}</style></defs><g transform="translate(865.889 70.901)"><path class="a" d="M-841.8-28.67c-2.1-.255-4.153-.729-6.226-1.113-5.756-1.066-11.506-2.161-17.259-3.239a3.9,3.9,0,0,0-.6-.022v-.909c.125-.075.131-.2.147-.327q1.061-8.24,2.123-16.48c.312-2.424.633-4.847.93-7.273a1.414,1.414,0,0,1,1.118-1.335c1.163-.329,2.305-.733,3.469-1.061a.935.935,0,0,0,.765-.769,18.664,18.664,0,0,1,3.17-6.723,8.9,8.9,0,0,1,4.338-2.981h1.818a5.243,5.243,0,0,1,1.435,1.056.508.508,0,0,0,.393.182c2.126.121,3.27,1.5,4.015,3.272.3.711.593.971,1.308.615a1.289,1.289,0,0,1,.883-.1c-.1,1.882-.234,3.763-.294,5.646-.062,1.935-.2,3.866-.292,5.8-.157,3.188-.279,6.378-.459,9.566-.113,2.007-.186,4.017-.3,6.025C-841.523-35.452-841.649-32.06-841.8-28.67ZM-849.31-56.4c-.313,0-.439,0-.565,0-3.476.124-6.208,1.455-7.625,4.809a5.979,5.979,0,0,0,1.367,7.132c.357.318.753.592,1.113.907a5.036,5.036,0,0,1,1.4,1.568,1.7,1.7,0,0,1-1.667,2.6,6.267,6.267,0,0,1-3.276-1.437c-.413-.286-.57-.311-.71.2-.238.874-.508,1.74-.785,2.6a.73.73,0,0,0,.2.81,8.44,8.44,0,0,0,8.58,1.661c3.53-1.6,4.9-7.822.988-10.849a22.02,22.02,0,0,1-2.873-2.327,1.531,1.531,0,0,1-.277-1.814,2.019,2.019,0,0,1,1.819-1.153,6.572,6.572,0,0,1,3.259.468c.41.176.6.142.742-.333.371-1.229.789-2.443,1.221-3.652.165-.462.067-.685-.407-.838A7.8,7.8,0,0,0-849.31-56.4Zm1.187-12.825a3.916,3.916,0,0,0-3.787,1.058,14.6,14.6,0,0,0-3.745,6.528c-.168.5.087.431.409.328.742-.238,1.484-.476,2.235-.685a.828.828,0,0,0,.647-.714C-851.748-65.344-850.7-67.718-848.123-69.224Zm1.478,4.274a9.425,9.425,0,0,0-.3-2.325c-.119-.556-.324-.644-.807-.317a7.859,7.859,0,0,0-2.926,4.442c-.14.439.1.389.392.3.886-.279,1.766-.59,2.669-.806C-846.841-63.845-846.375-64.161-846.645-64.95Zm1.116-3.149c-.083.393.14.732.181,1.1s.087.75.136,1.124c.194,1.5.293,1.554,1.708.91.046-.021.1-.032.143-.05.144-.055.151-.16.142-.3A4,4,0,0,0-845.529-68.1Z" transform="translate(0)"/><path class="a" d="M-700.9-.532c.156-3.39.282-6.782.479-10.17.117-2.008.189-4.018.3-6.025.18-3.188.3-6.378.459-9.566.1-1.933.23-3.863.293-5.8.061-1.883.193-3.764.294-5.646.708.137,1.076.743,1.463,1.219a3.966,3.966,0,0,0,3.4,1.531c1.688-.019,1.708.076,1.967,1.8q1.221,8.13,2.418,16.264.956,6.415,1.924,12.829c.07.468.122.836-.532.973-4.01.841-8.013,1.722-12.019,2.584A2.225,2.225,0,0,1-700.9-.532Z" transform="translate(-139.989 -28.138)"/></g></svg>