<svg xmlns="http://www.w3.org/2000/svg" width="28.779" height="23.817" viewBox="0 0 28.779 23.817"><defs><style>.a{fill:#fff;}</style></defs><path class="a" d="M427.041,1236.679a13.631,13.631,0,0,1-1.456,1.619c-1.164,1.156-1.226,1.282-1.226,2.25a21.676,21.676,0,0,1-1.415,6.305,18.278,18.278,0,0,1-6.924,8.159,17.55,17.55,0,0,1-13.642,1.556,15.931,15.931,0,0,1-4.013-1.85,6.088,6.088,0,0,1,1.706-.169,11.646,11.646,0,0,0,5.573-1.555l1.123-.673-1.289-.44a6.291,6.291,0,0,1-3.889-3.449c-.125-.442-.083-.463,1.081-.463l1.206-.021-1.019-.483a6.724,6.724,0,0,1-2.85-2.692,7.547,7.547,0,0,1-.748-2.817,2.45,2.45,0,0,1,.978.231c1.434.526,1.621.4.79-.483a6.075,6.075,0,0,1-1.289-6.223l.353-1.01,1.372,1.367a16.9,16.9,0,0,0,9.9,4.877l1.04.126-.062-1.03a6.019,6.019,0,0,1,4.055-6.054,7.106,7.106,0,0,1,3.64-.085,8.429,8.429,0,0,1,1.767.925l1.019.695,1.123-.358a11.472,11.472,0,0,0,1.83-.715c.354-.189.666-.294.666-.231a6.133,6.133,0,0,1-1.414,2.25c-.875.945-.625,1.03,1.143.4C427.228,1236.279,427.249,1236.279,427.041,1236.679Z" transform="translate(-398.365 -1233.476)"/></svg>