<svg xmlns="http://www.w3.org/2000/svg" width="42.871" height="32.163" viewBox="0 0 42.871 32.163"><defs><style>.a{fill:#fff;}</style></defs><path class="a" d="M614.795,1236.244s-.418-3.154-1.7-4.542a5.914,5.914,0,0,0-4.295-1.934c-6-.465-15-.465-15-.465h-.02s-9,0-15,.465a5.917,5.917,0,0,0-4.3,1.934c-1.283,1.388-1.7,4.542-1.7,4.542a73.639,73.639,0,0,0-.429,7.4v3.468a73.594,73.594,0,0,0,.429,7.4s.418,3.152,1.7,4.538c1.633,1.82,3.773,1.765,4.727,1.955,3.43.351,14.577.46,14.577.46s9.008-.016,15.008-.476a5.939,5.939,0,0,0,4.295-1.938c1.284-1.385,1.7-4.537,1.7-4.537a73.645,73.645,0,0,0,.429-7.4v-3.468A73.636,73.636,0,0,0,614.795,1236.244Zm-26.36,17.181v-16.081l13.4,8.041Z" transform="translate(-572.353 -1229.303)"/></svg>