<svg xmlns="http://www.w3.org/2000/svg" width="139.35" height="30.521" viewBox="0 0 139.35 30.521"><defs><style>.a,.b{fill:#bababa;}.b{fill-rule:evenodd;}</style></defs><path class="a" d="M396.258,134.828l-50.605,0-.931,3.356,50.606,0Z" transform="translate(-259.202 -107.665)"/><g transform="translate(88.505 6.452)"><path class="a" d="M477.381,68.931l-4.9,7.135h-3.851l-.8-7.135-3.07,9.368h-3.719l5.579-17.094h3.8l1.146,11.036,7.22-11.036h3.773L479.033,78.3h-3.7Z" transform="translate(-431.716 -60.946)"/><path class="a" d="M422.76,78.3h-3.8l1.288-4.937L418.169,61.18H422l1.2,7.919L428.4,61.18h4.344l-8.7,12.186Z" transform="translate(-400.752 -60.928)"/><path class="a" d="M363.318,68.329l-.831,3.081H364.8L364,74.246a13.921,13.921,0,0,1-2.545.282c-1.616,0-2.068-.616-1.962-1.669a5.379,5.379,0,0,1,.167-.847l1.664-5.934a2.815,2.815,0,0,1,3.148-2.391,20.87,20.87,0,0,1,4.841.642l1.18-3.235a19.993,19.993,0,0,0-5.283-.824c-4.57,0-6.589,1.876-7.451,5.01l-2.047,7.4a8,8,0,0,0-.215,1.078c-.256,2.49,1.322,4.134,5.276,4.134a16.3,16.3,0,0,0,6.074-1.1l2.361-8.458Z" transform="translate(-355.467 -60.271)"/></g><g transform="translate(0 0)"><path class="b" d="M256.438,60.625a.992.992,0,0,1-.51-.619.81.81,0,0,1-.023-.237,1.049,1.049,0,0,1,.036-.222l4.064-14.654a1.352,1.352,0,0,1,.619-.883,3.38,3.38,0,0,1,1.531-.25h11.2l1.862-6.714H259.512c-2.863,0-4.858.34-6.021.984a5.319,5.319,0,0,0-2.433,3.47l-5.8,20.895a4.146,4.146,0,0,0-.152.914,3.233,3.233,0,0,0,.089.931,3.913,3.913,0,0,0,2,2.433,8.027,8.027,0,0,0,3.954.894H267.6l1.862-6.714H257.444a2.04,2.04,0,0,1-1.006-.227" transform="translate(-187.256 -37.046)"/><g transform="translate(29.906 0)"><path class="a" d="M158.349,84.592h12.056l1.862-6.714H149.834l-5.319,19.178h10.377Z" transform="translate(-144.516 -66.535)"/><path class="a" d="M190.716,43.76H168.282l1.862-6.714h22.433Z" transform="translate(-161.68 -37.046)"/></g><path class="b" d="M44.044,37.045,37.015,62.393a4.168,4.168,0,0,0-.153.915,3.242,3.242,0,0,0,.089.931,3.913,3.913,0,0,0,2,2.433,8.028,8.028,0,0,0,3.954.894l11.7,0c2.863,0,4.858-.339,6.021-.984a5.319,5.319,0,0,0,2.433-3.47l7.23-26.064H59.913L53.623,59.718A1.353,1.353,0,0,1,53,60.6a3.388,3.388,0,0,1-1.531.25H49.687a2.044,2.044,0,0,1-1.006-.227,1,1,0,0,1-.51-.619.824.824,0,0,1-.022-.237,1.039,1.039,0,0,1,.036-.222l6.237-22.5Z" transform="translate(-36.857 -37.045)"/></g></svg>