<svg xmlns="http://www.w3.org/2000/svg" width="132.682" height="85.439" viewBox="0 0 132.682 85.439"><defs><style>.a{fill:#bababa;}</style></defs><g transform="translate(0)"><path class="a" d="M3144.207,65.991V19.439L3077.93.079l-66.279,19.36V65.991l66.279,19.527,65.11-19.183Zm-4.231-3.164L3077.93,81.1l-62.048-18.277V22.611L3077.93,4.49l62.046,18.122Z" transform="translate(-3011.651 -0.079)"/><path class="a" d="M4146.233,1021.857l.614-1.811h-3.3l-2.464,7.775c-1.238,1.982-2.326,2.82-3.234,2.5-.353-.126-.144-.812.079-1.447l.073-.212c.585-1.911,1.344-3.858,1.7-4.71a4.944,4.944,0,0,0,.317-3.44,1.3,1.3,0,0,0-.755-.741c-1.117-.409-3.061.515-4.716,2.152l.624-1.873h-3.3l-4.014,12.6h3.3l2.205-6.813a7.684,7.684,0,0,1,2.788-3.631c.285-.194.518-.262.623-.176.159.129.183.615-.062,1.2a45.041,45.041,0,0,0-1.961,5.59c-.268.891-.626,2.535-.021,3.52a1.6,1.6,0,0,0,1.141.747c1.271.223,3.043-1.065,4.22-2.155l-.556,1.72h3.3l2.2-6.813a7.678,7.678,0,0,1,2.788-3.631c.285-.194.517-.262.624-.176.159.129.182.615-.059,1.2l-.306.732a33.449,33.449,0,0,0-1.711,4.725c-.3,1.3-.6,3.731.685,5.407a5.032,5.032,0,0,0,4.038,1.729,8.621,8.621,0,0,0,6.107-2.72c2.4-2.314,4.208-5.848,4.208-8.218a2.942,2.942,0,0,0-1.117-2.614h0a.816.816,0,0,0-.735-.153c-.5.212-.374.944-.221,1.867l.026.156a11.018,11.018,0,0,1-4.531,9.13c-.15.077-.3.162-.461.25a6.52,6.52,0,0,1-3.255,1.079,2.244,2.244,0,0,1-1.723-.688,2.779,2.779,0,0,1-.435-2.208,39.966,39.966,0,0,1,2.426-7.751,4.962,4.962,0,0,0,.321-3.44,1.309,1.309,0,0,0-.756-.741C4149.935,1019.4,4148.012,1020.1,4146.233,1021.857Z" transform="translate(-4068.613 -965.558)"/><path class="a" d="M3255.939,530.361h0l1.235-3.4h1.25l.553-1.661h-1.221l1.456-4.072c.559-1.626,2.1-5,3.937-6.163.394-.132.417-.353.409-.479-.035-.506-.714-.338-.714-.338-1.917.388-5.49,1.109-8.389,10.335l-.247.688-4.96.026c.911-2.679,2.358-5.9,2.579-6.384a7.58,7.58,0,0,1,1.35-2.311c.556-.353.662-.773.514-1.035a.558.558,0,0,0-.785-.147,6.641,6.641,0,0,1-2.353.7c-2.437.306-5.872.838-7.575,1.944a1.55,1.55,0,0,0-.853,1.517,1.029,1.029,0,0,0,.683.853,1.081,1.081,0,0,0,1.126-.4c1.206-1.476,4.12-2.341,5.907-2.546a18.567,18.567,0,0,0-3.39,5.475c-.174.432-.488,1.338-.812,2.338h-2.508l-.553,1.661h2.537l-1.046,3.334c-.415,1.32-.771,2.464-.944,2.984-1.444,4.328-3.5,6.475-6.11,6.378-3.89-.144-6.263-3.814-6.31-7.28-.042-2.987.7-4.825,2.649-6.551a1.012,1.012,0,0,0,.176-1.379,1.462,1.462,0,0,0-2.24.074c-.927.926-2.294,3.893-2.226,7.275a9.688,9.688,0,0,0,3.09,7.113,7.078,7.078,0,0,0,6.848,1.844c3.405-.891,6.563-4.187,7.86-8.2l1.817-5.593h4.928l-.744,2.114c-.906,2.652-2.585,7.6,1.75,12.023l.409-.247C3254.651,539.759,3254.013,536.551,3255.939,530.361Z" transform="translate(-3217.523 -486.928)"/><path class="a" d="M3743.152,915.4h0a9.128,9.128,0,0,1,2.944-3.526c.144-.091.585-.365.482-.726s-.667-.409-.9-.409c-.132,0-13.388.815-14.405,8.918a3.409,3.409,0,0,0,1.747,3.411,1.277,1.277,0,0,0,1.5-.265c.126-.162.365-.609-.177-1.238a3.6,3.6,0,0,1-.829-3.046c.315-1.138,2.573-4.534,8.621-5.751a19.719,19.719,0,0,0-3.029,4.472l-.347.879c-.994,2.511-3.32,8.386-4.034,9.642-.812,1.435-3.12,4.758-6.957,4.613a6.393,6.393,0,0,1-6.36-5.725,7.423,7.423,0,0,1,2.649-6.542,1.047,1.047,0,0,0,.177-1.379c-.15-.209-.753-.823-2.217.056l-.05.038a10.529,10.529,0,0,0-2.429,7.213,7.935,7.935,0,0,0,3.334,5.948,8.737,8.737,0,0,0,7.656,1.5,13.233,13.233,0,0,0,8.342-6.769,75.618,75.618,0,0,0,2.937-7.727A26.489,26.489,0,0,1,3743.152,915.4Z" transform="translate(-3681.945 -862.405)"/><path class="a" d="M3821.23,654.18h-3.246l-2.532,7.968c-1.535,1.876-2.89,2.87-3.546,2.6-.279-.118-.174-1.094.232-2.179.1-.271.374-.906.694-1.644.609-1.411,1.365-3.167,1.559-3.849a2.781,2.781,0,0,0-.235-2.452,1.868,1.868,0,0,0-1.561-.688c-1.385,0-3.137,1.55-4.131,2.676a3.208,3.208,0,0,0-.612-2.058,1.649,1.649,0,0,0-1.311-.617c-1.241,0-2.788,1.267-3.8,2.332l.662-2.088h-3.246l-2.488,7.81c-1.208,1.755-2.393,2.7-3.261,2.593a.323.323,0,0,1-.271-.138c-.188-.3.062-1.073.247-1.641l2.77-8.627h-3.252l-.129.444a2.243,2.243,0,0,0-1.835-.788c-1.094.009-4.331,1.073-6.242,5.928h0c-1.2,3.037-1.458,5.26-.759,6.434a1.809,1.809,0,0,0,1.4.882c1.226.144,3.123-1.129,4.484-2.582a3.211,3.211,0,0,0,.632,1.894,1.841,1.841,0,0,0,1.4.691c1.212.038,2.793-1.15,3.893-2.2l-.606,1.9h3.246l1.664-5.152c.456-1.408,1.914-3.928,3.361-4.8.394-.238.618-.25.694-.185.182.156.124.859-.124,1.464l-2.84,8.671h3.3l1.626-5.131c.465-1.438,1.982-3.967,3.4-4.819.641-.385.8-.291.8-.291.177.044.08.347-.165.944a46.084,46.084,0,0,0-2.214,5.313,4.608,4.608,0,0,0,.215,3.6,1.682,1.682,0,0,0,1.379.72c1.208.038,3-1.4,4.2-2.561l-2.132,6.713h3.223s1.744-5.328,1.773-5.366a1.725,1.725,0,0,1,.106.165l.006.012a1.678,1.678,0,0,0,1.491.838c.961.047,4.719-1.023,6.131-5.69.885-2.937.92-5.225.1-6.445a1.955,1.955,0,0,0-1.479-.9,4.619,4.619,0,0,0-2.843.844Zm-29.139,5.743c-.453,1.417-2.238,4.616-3.634,4.375a.444.444,0,0,1-.326-.232c-.412-.744.25-2.817.706-3.925.271-.656,2.011-3.914,3.375-4.478a.7.7,0,0,1,.553-.032,1.07,1.07,0,0,1,.408.909Zm30.524-3.787c-.062-.062.021.006,0,0,.47.468.085,2.867-.338,3.97-.8,2.08-2.453,5.071-3.643,4.911.005,0,.009,0,0,0-.22-.109-.57-.294-.518-1.076l1.32-4.143C3820.578,656.991,3821.677,655.8,3822.615,656.135Z" transform="translate(-3743.536 -619.136)"/><path class="a" d="M4426.448,864.448h0C4426.443,864.445,4426.433,864.44,4426.448,864.448Z" transform="translate(-4351.354 -818.569)"/><path class="a" d="M4426.588,864.53h0C4426.6,864.535,4426.593,864.533,4426.588,864.53Z" transform="translate(-4351.49 -818.651)"/><path class="a" d="M4501.239,696.747c.021.006-.062-.062,0,0Z" transform="translate(-4422.16 -659.748)"/><path class="a" d="M4574.014,588.155a1.849,1.849,0,0,0,1.529.8c2.332.118,3.89-2.091,4.816-3.581a3.572,3.572,0,0,0,2.693,3.329c2.226.691,5.331-1.705,6.648-5.128a12.82,12.82,0,0,0,.564-1.9,6.133,6.133,0,0,0,2.082-1.038l-2.523,7.974h3.293l2.2-6.813a7.7,7.7,0,0,1,2.785-3.631c.285-.194.518-.259.623-.176.159.129.182.612-.059,1.2l-.306.732a33.783,33.783,0,0,0-1.712,4.728c-.3,1.3-.6,3.731.686,5.4a5.027,5.027,0,0,0,4.037,1.729,8.417,8.417,0,0,0,6.054-2.7c2.667-2.573,4.257-6.26,4.257-8.336a2.819,2.819,0,0,0-1.064-2.5h0a.878.878,0,0,0-.785-.162c-.5.212-.362,1.02-.206,1.947.135.82-.218,9.865-8.236,10.535a1.982,1.982,0,0,1-1.723-.688,2.793,2.793,0,0,1-.435-2.211,39.833,39.833,0,0,1,2.426-7.751,4.928,4.928,0,0,0,.317-3.44,1.3,1.3,0,0,0-.752-.741c-1.059-.385-2.873.126-4.558,1.761l.461-1.482h-3.281l-.062.153c-.9,2.211-2.005,3.49-3.3,3.808.088-2.049-.553-3.546-1.791-4.134a3.887,3.887,0,0,0-3.073.12,8.059,8.059,0,0,0-4.34,4.5,14.323,14.323,0,0,0-.894,3.37c-1.62,2.064-3,3.049-3.714,2.679-.162-.318-.091-.859.259-1.776.065-.173,2.394-7.557,2.394-7.557h2.267l.335-1.167H4579.7l1.491-4.734-3.481.812-1.247,3.919h-2.2l-.42,1.167h2.252l-2.038,6.419C4574.012,583.724,4573.021,586.694,4574.014,588.155Zm13.106-10.418c.408-.391.767-.579.95-.488.132.068.52.471.211,2.861a1.1,1.1,0,0,1-.75-.32A2.721,2.721,0,0,1,4587.12,577.737Zm-1.532,1.814a3.035,3.035,0,0,0,2.267,2.338c-.368,1.376-1.529,4.564-2.843,5.1h0a.838.838,0,0,1-.826-.088,1.632,1.632,0,0,1-.618-1.335A11.335,11.335,0,0,1,4585.588,579.551Z" transform="translate(-4490.678 -540.968)"/><path class="a" d="M5406.148,1297.99a2.957,2.957,0,0,0-5.913.038c0,.017,0,.033,0,.05a2.919,2.919,0,0,0,2.963,2.875h.053a2.911,2.911,0,0,0,2.9-2.926C5406.149,1298.016,5406.149,1298,5406.148,1297.99Zm-2.949,2.476a2.359,2.359,0,0,1-2.375-2.44c0-.028,0-.056,0-.083a2.372,2.372,0,1,1,2.376,2.524Z" transform="translate(-5273.467 -1226.385)"/><path class="a" d="M4271.025,260.173a6.634,6.634,0,0,0,2.155,6.328,6.067,6.067,0,0,0,7.589.347,3.766,3.766,0,0,0,1.161-3.6.57.57,0,0,0-.752-.385s-.467.141-.326.914a3.106,3.106,0,0,1-2.015,3.214,5.227,5.227,0,0,1-6.39-2.523,5.491,5.491,0,0,1,.244-5.616,2.1,2.1,0,0,1,2.441-.632h0s.735.835,1.285.021c0,0,.55-1.141-1.059-1.241C4275.359,257,4271.922,256.122,4271.025,260.173Z" transform="translate(-4204.06 -243.287)"/><path class="a" d="M4204.309,190.832c1.953.082,2.725,2.605,2.725,2.605s.774-2.523,2.727-2.605c-1.955-.079-2.727-2.605-2.727-2.605S4206.262,190.75,4204.309,190.832Z" transform="translate(-4141.011 -178.241)"/><path class="a" d="M4037.328,266.848a6.067,6.067,0,0,0,7.589-.347,6.636,6.636,0,0,0,2.155-6.328c-.9-4.052-4.334-3.176-4.334-3.176-1.608.1-1.059,1.241-1.059,1.241.55.814,1.282-.021,1.282-.021a2.111,2.111,0,0,1,2.443.632,5.491,5.491,0,0,1,.244,5.616,5.227,5.227,0,0,1-6.39,2.523,3.1,3.1,0,0,1-2.014-3.214c.141-.773-.326-.914-.326-.914a.57.57,0,0,0-.753.385A3.774,3.774,0,0,0,4037.328,266.848Z" transform="translate(-3981.677 -243.287)"/><path class="a" d="M4228.959,406.037a5.9,5.9,0,0,1,1.659-2.382,1.733,1.733,0,1,0-3.317,0A5.923,5.923,0,0,1,4228.959,406.037Z" transform="translate(-4162.783 -380.118)"/><path class="a" d="M5437.333,1319.294c0-.664-.391-.959-1.188-.959h-1.282v3.367h.5v-1.458h.588l.888,1.458h.571l-.956-1.482A.876.876,0,0,0,5437.333,1319.294Zm-1.959.518v-1.041h.694c.356,0,.732.076.732.494,0,.518-.385.547-.817.547Z" transform="translate(-5306.256 -1248.371)"/></g></svg>