<svg xmlns="http://www.w3.org/2000/svg" width="137.423" height="37.39" viewBox="0 0 137.423 37.39"><defs><style>.a{fill:#bababa;}</style></defs><g transform="translate(-892.037 -403.48)"><g transform="translate(892.037 403.48)"><path class="a" d="M1248.8,420.236c.139-.577.28-1.154.417-1.731q1.585-6.7,3.172-13.407a1.866,1.866,0,0,1,2.057-1.611c2.084,0,4.169,0,6.253-.007.238,0,.28.072.28.291q-.009,10.279-.005,20.56a1.091,1.091,0,0,1-1.151,1.242c-1.386.029-2.772.012-4.158.02-.131,0-.174-.044-.16-.167a1.917,1.917,0,0,0,0-.2q0-8.651,0-17.3c0-.153.061-.349-.223-.305-.158.025-.129.154-.152.245q-.659,2.585-1.309,5.173-1.4,5.524-2.792,11.049a4.223,4.223,0,0,1-.136.443,1.457,1.457,0,0,1-1.5,1.063c-1.008.012-2.017,0-3.025.007-.159,0-.207-.057-.246-.206q-1.646-6.449-3.3-12.895-.595-2.317-1.186-4.635c-.012-.047-.026-.093-.037-.14-.034-.14-.148-.093-.237-.1-.123-.011-.109.078-.11.154s0,.136,0,.2q0,8.433,0,16.867a2.6,2.6,0,0,1-.014.377.386.386,0,0,1-.411.368c-.688,0-1.377,0-2.065.006-.144,0-.186-.054-.177-.188s0-.272,0-.407q0-10,0-20.007c0-1.163.342-1.5,1.508-1.5,1.542,0,3.083,0,4.625-.005.216,0,.289.06.337.275q1.258,5.707,2.535,11.41.536,2.407,1.067,4.814c.018.083.046.165.07.247Z" transform="translate(-1123.554 -403.481)"/><path class="a" d="M952.151,412.336q0,4.2,0,8.4a5.244,5.244,0,0,0,.116,1.067,2.254,2.254,0,0,0,1.4,1.726,5.758,5.758,0,0,0,4.36.044,2.441,2.441,0,0,0,1.613-2.122,8.47,8.47,0,0,0,.069-1.13q0-7.807,0-15.616c0-.879.328-1.215,1.208-1.218,1.406,0,2.812,0,4.217-.006.2,0,.26.051.26.257-.006,5.457.009,10.914-.01,16.372a5.536,5.536,0,0,1-4.374,5.611,19.189,19.189,0,0,1-9.853.037,7.847,7.847,0,0,1-2.05-.868,5.223,5.223,0,0,1-2.61-4.34c-.029-.357-.031-.716-.031-1.074q0-7.386,0-14.772c0-.1.006-.194.015-.29a.873.873,0,0,1,.97-.923c1.5-.014,3.005,0,4.508-.009.176,0,.179.083.179.213,0,.717,0,1.435,0,2.152v6.484Z" transform="translate(-928.402 -403.484)"/><path class="a" d="M1090.025,415.507l1.764-1.393c.655-.516,1.305-1.036,1.968-1.54a.6.6,0,0,0,.265-.535c-.009-2.016-.005-4.033,0-6.049a4.28,4.28,0,0,1,.125-1.094,1.85,1.85,0,0,1,1.794-1.355,8.744,8.744,0,0,1,.928-.051c3.927,0,7.854,0,11.781-.009.27,0,.338.072.329.334-.021.562-.005,1.125-.007,1.687,0,.373-.046.419-.421.419h-7.156c-1,0-1.46.454-1.46,1.453,0,1.765.007,3.529-.008,5.293,0,.27.081.309.322.308,2.657-.008,5.313,0,7.97-.01.221,0,.3.043.293.281-.018.6-.006,1.2-.006,1.8,0,.405-.063.468-.475.469-2.6,0-5.2.005-7.8-.007-.269,0-.308.079-.307.321.009,2.763.006,5.526.006,8.289,0,1.148-.322,1.47-1.467,1.47-1.377,0-2.754-.006-4.13.006-.245,0-.324-.043-.323-.312.011-3.151,0-6.3.013-9.452,0-.259-.057-.336-.327-.332C1092.5,415.516,1091.312,415.507,1090.025,415.507Z" transform="translate(-1024.307 -403.48)"/><path class="a" d="M900.621,403.487c2.026,0,4.052,0,6.078-.006.247,0,.306.064.3.3-.019.571,0,1.143-.006,1.715,0,.356-.065.42-.425.42h-7.154c-1,0-1.467.459-1.469,1.449,0,1.774,0,3.547-.007,5.321,0,.234.068.284.291.284,2.666-.008,5.332,0,8-.01.233,0,.316.041.307.294-.021.59-.006,1.182-.007,1.773,0,.416-.07.487-.491.487-2.588,0-5.176,0-7.765-.006-.257,0-.336.052-.335.326.012,2.752.007,5.505.006,8.258,0,.116,0,.232-.013.348-.061.816-.4,1.141-1.219,1.145-1.483.008-2.966,0-4.45.008-.248,0-.223-.121-.223-.282q0-7.341,0-14.683,0-2.341,0-4.681a4.722,4.722,0,0,1,.073-.838,1.872,1.872,0,0,1,1.883-1.579,13.024,13.024,0,0,1,1.393-.045Z" transform="translate(-892.037 -403.481)"/><path class="a" d="M1190.325,413.747q0-4.493,0-8.987a2.278,2.278,0,0,1,.056-.576.837.837,0,0,1,.675-.641,2.387,2.387,0,0,1,.519-.054c1.367,0,2.734,0,4.1-.009.256,0,.317.059.317.316q-.013,7.358-.005,14.716c0,.959.014,1.919.017,2.878a1.613,1.613,0,0,0,1.8,1.8c1.445.01,2.889,0,4.334,0,.427,0,.854.006,1.28,0,.162,0,.243.017.238.214-.014.581,0,1.163-.006,1.745,0,.323-.109.437-.407.437-3.326,0-6.651,0-9.977-.013a3.342,3.342,0,0,1-1.849-.523,2.461,2.461,0,0,1-1.071-2.144c-.033-1.289-.016-2.578-.017-3.868Q1190.323,416.394,1190.325,413.747Z" transform="translate(-1091.313 -403.48)"/><path class="a" d="M1018.549,412.489q0-3.867,0-7.734a2.258,2.258,0,0,1,.024-.376.942.942,0,0,1,1.01-.882c1.483-.011,2.966,0,4.449-.007.151,0,.214.043.2.2a2.886,2.886,0,0,0,0,.291c0,4.72.007,9.44,0,14.159a10,10,0,0,1-.592,3.792,6.488,6.488,0,0,1-3.955,3.647,14.217,14.217,0,0,1-4.908.773,32.836,32.836,0,0,1-3.8-.12c-.483-.049-.542-.107-.542-.587,0-.446.02-.893-.008-1.337-.018-.287.1-.333.344-.321a29.244,29.244,0,0,0,3.369-.029,8.526,8.526,0,0,0,2.115-.337,3.137,3.137,0,0,0,2.238-2.76,8.183,8.183,0,0,0,.067-1.188Q1018.551,416.08,1018.549,412.489Z" transform="translate(-971.122 -403.487)"/><path class="a" d="M1162.823,414.188v10.176c0,.048,0,.1,0,.145-.013.765-.319,1.077-1.082,1.081-1.163.005-2.327,0-3.49,0-.31,0-.621-.006-.93,0-.141,0-.195-.042-.18-.181a2.3,2.3,0,0,0,0-.232q0-10.191,0-20.381a4.176,4.176,0,0,1,.024-.435.872.872,0,0,1,.737-.82,2.754,2.754,0,0,1,.548-.055c1.347,0,2.695,0,4.042-.008.256,0,.337.052.336.326C1162.819,407.268,1162.822,410.728,1162.823,414.188Z" transform="translate(-1069.144 -403.481)"/><path class="a" d="M1067.453,444.687c0-1.58,0-3.16-.005-4.739,0-.23.038-.311.293-.309,1.706.013,3.412.01,5.118,0,.207,0,.282.04.281.268-.008,2.9,0,5.8-.007,8.693,0,.853-.306,1.143-1.167,1.143-1.415,0-2.831,0-4.246.006-.214,0-.274-.046-.273-.267C1067.458,447.885,1067.453,446.286,1067.453,444.687Z" transform="translate(-1009.224 -427.637)"/><path class="a" d="M1067.454,415.369v-.425q0-5.03,0-10.059c0-.058,0-.116,0-.175.021-.857.376-1.219,1.232-1.222,1.4-.007,2.792,0,4.188-.006.2,0,.266.053.266.258q-.01,3.371,0,6.742a.877.877,0,0,1-.362.748q-2.557,1.988-5.1,3.989C1067.62,415.26,1067.563,415.295,1067.454,415.369Z" transform="translate(-1009.228 -403.481)"/><path class="a" d="M1069.7,496.533a3.005,3.005,0,0,1,2.127-.586,1.727,1.727,0,0,1,1.161.594c.126.151.2.141.339.04a3.138,3.138,0,0,1,2.033-.653,1.871,1.871,0,0,1,1.768,1.825c.032,1.424.016,2.849.014,4.274,0,.29-.138.418-.437.424-.388.008-.776-.011-1.163.007-.213.009-.254-.067-.252-.263.008-1.338,0-2.675,0-4.013a1.687,1.687,0,0,0-.122-.738.532.532,0,0,0-.728-.33,2.729,2.729,0,0,0-.934.571c-.111.093-.087.206-.087.318q0,1.948,0,3.9c0,.457-.1.553-.566.554-.349,0-.7-.013-1.047.005-.208.011-.255-.055-.254-.257.009-1.367.005-2.733,0-4.1,0-.377-.026-.771-.392-.971s-.664.07-.965.233a.9.9,0,0,0-.518.927c.04,1.21.014,2.423.014,3.634,0,.421-.109.526-.538.528-.378,0-.757-.007-1.134,0-.157,0-.193-.05-.193-.2,0-1.929,0-3.858,0-5.786,0-.294.128-.413.432-.416.378,0,.757.014,1.134-.007.237-.013.344.046.3.294A1.324,1.324,0,0,0,1069.7,496.533Z" transform="translate(-1009.482 -465.24)"/><path class="a" d="M915.857,490.025c-.4.955-.786,1.88-1.175,2.8q-1.129,2.685-2.26,5.368a.866.866,0,0,1-1.072.432c-.1-.043-.111-.153-.149-.236q-1.7-3.764-3.4-7.531c-.067-.15-.145-.3-.206-.448-.1-.259-.014-.386.267-.388.465,0,.931.009,1.4-.006a.291.291,0,0,1,.315.216q1.2,2.669,2.418,5.332l.1.213c.121-.019.112-.127.141-.2.743-1.762,1.487-3.524,2.217-5.292a.366.366,0,0,1,.425-.273C915.19,490.041,915.508,490.025,915.857,490.025Z" transform="translate(-902.407 -461.293)"/><path class="a" d="M1123.539,496.531a4.185,4.185,0,0,1,1.021-.488,1.986,1.986,0,0,1,2.594,1.211,1.928,1.928,0,0,1,.1.6q0,2.064,0,4.129c0,.364-.117.478-.492.481s-.738-.011-1.1.005c-.2.009-.26-.051-.259-.257.009-1.357,0-2.714.005-4.071,0-.385-.008-.795-.39-1s-.681.074-.988.248a.894.894,0,0,0-.5.909c.04,1.21.014,2.423.014,3.634,0,.423-.108.528-.533.53-.378,0-.756-.006-1.134,0-.155,0-.2-.05-.2-.2,0-1.929,0-3.858,0-5.786,0-.294.128-.41.436-.414.378,0,.757.017,1.134-.007.25-.016.333.067.291.3A1.266,1.266,0,0,0,1123.539,496.531Z" transform="translate(-1045.453 -465.248)"/><path class="a" d="M1144.542,496.536a3.3,3.3,0,0,1,1.641-.594,1.9,1.9,0,0,1,2.065,1.845c.023,1.414.008,2.829,0,4.243,0,.3-.13.424-.427.43-.4.008-.795-.01-1.192.007-.2.008-.236-.062-.235-.245.007-1.366,0-2.732,0-4.1,0-.377-.02-.773-.381-.977s-.68.063-.989.233a.884.884,0,0,0-.506.905c.041,1.21.014,2.421.014,3.632,0,.441-.1.543-.551.545-.378,0-.756-.006-1.133,0-.141,0-.18-.044-.18-.181,0-1.947,0-3.894,0-5.842a.341.341,0,0,1,.381-.377c.407,0,.815.014,1.22-.007.225-.012.3.06.261.272A1.494,1.494,0,0,0,1144.542,496.536Z" transform="translate(-1059.483 -465.248)"/><path class="a" d="M1275.633,496.521a3.306,3.306,0,0,1,1.589-.574,1.894,1.894,0,0,1,2.094,1.871c.019,1.4,0,2.809.006,4.214,0,.274-.128.424-.4.429-.426.009-.853-.006-1.279.006-.218.006-.167-.137-.167-.252q0-2.049,0-4.1a1.878,1.878,0,0,0-.052-.46q-.2-.8-.948-.476c-.071.031-.139.068-.208.1a1.039,1.039,0,0,0-.672,1.1c.053,1.17.016,2.344.016,3.516,0,.463-.1.561-.564.562-.368,0-.737-.007-1.1,0-.156,0-.2-.049-.195-.2q.007-2.906,0-5.813a.349.349,0,0,1,.4-.39h1.017C1275.6,496.067,1275.6,496.067,1275.633,496.521Z" transform="translate(-1147.051 -465.251)"/><path class="a" d="M966.455,502.149c-.2.135-.363.257-.536.358a2.062,2.062,0,0,1-3.154-1.77c-.013-1.317,0-2.635,0-3.953,0-.375.1-.474.489-.475.368,0,.737.013,1.1-.005.208-.01.253.057.251.257-.009,1.366,0,2.732-.006,4.1a1.122,1.122,0,0,0,.162.637.772.772,0,0,0,1.176.2,1.188,1.188,0,0,0,.527-1.052c-.036-1.2-.013-2.4-.012-3.6,0-.435.1-.533.522-.534.388,0,.775.006,1.163,0,.139,0,.18.038.18.178,0,1.938,0,3.876,0,5.814a.368.368,0,0,1-.4.4c-.436.01-.872,0-1.308.006-.136,0-.164-.057-.157-.174S966.455,502.3,966.455,502.149Z" transform="translate(-939.283 -465.492)"/><path class="a" d="M1047.624,495.915a3.229,3.229,0,0,1,3.358,3.191,3.389,3.389,0,0,1-3.365,3.457,3.324,3.324,0,1,1,.007-6.648Zm1.361,3.7a4.819,4.819,0,0,0-.391-2.079,1.219,1.219,0,0,0-1.148-.835c-.576.033-.822.482-1.005.959a3.735,3.735,0,0,0-.145,1.748,3.432,3.432,0,0,0,.624,1.871.959.959,0,0,0,1.731-.14A3.114,3.114,0,0,0,1048.985,499.616Z" transform="translate(-993.742 -465.233)"/><path class="a" d="M1253.548,495.912a3.249,3.249,0,0,1,3.378,3.212,3.409,3.409,0,0,1-3.364,3.438,3.325,3.325,0,1,1-.013-6.65Zm1.347,3.621c0-.174.015-.35,0-.522a3.276,3.276,0,0,0-.636-1.891.962.962,0,0,0-1.653.076,1.908,1.908,0,0,0-.26.547,4.332,4.332,0,0,0-.082,1.9,3.362,3.362,0,0,0,.558,1.6.974.974,0,0,0,1.793-.155A2.9,2.9,0,0,0,1254.895,499.533Z" transform="translate(-1131.328 -465.231)"/><path class="a" d="M1162.841,499.284a3.351,3.351,0,0,1,6.7-.152,3.389,3.389,0,0,1-3.362,3.43A3.247,3.247,0,0,1,1162.841,499.284Zm1.976-.5a6.018,6.018,0,0,0,.2,1.521,2.258,2.258,0,0,0,.652,1.174.893.893,0,0,0,1.424-.15,2.019,2.019,0,0,0,.286-.567,4.655,4.655,0,0,0,.087-2.183,2.823,2.823,0,0,0-.565-1.439.965.965,0,0,0-1.67.068A2.778,2.778,0,0,0,1164.817,498.779Z" transform="translate(-1072.954 -465.232)"/><path class="a" d="M931.783,497.279c-.014-.028-.02-.036-.021-.044-.055-.869-.055-.869.779-1.095a5.8,5.8,0,0,1,2.783-.178,1.651,1.651,0,0,1,1.482,1.831q0,2.05,0,4.1c0,.407-.107.516-.515.518-.349,0-.7-.018-1.047.007-.253.018-.33-.071-.291-.306a1.14,1.14,0,0,0,0-.182c-.106-.016-.149.073-.213.117a2.547,2.547,0,0,1-2.1.41,1.725,1.725,0,0,1-1.055-2.675,3.1,3.1,0,0,1,1.341-1.076,9.006,9.006,0,0,1,1.778-.618c.21-.052.27-.148.241-.339-.017-.115-.028-.231-.048-.345-.094-.524-.317-.706-.856-.691a5.9,5.9,0,0,0-1.943.441C931.993,497.194,931.888,497.237,931.783,497.279Zm3.172,1.588a2.953,2.953,0,0,0-1.514,1,1.426,1.426,0,0,0-.267.636.809.809,0,0,0,.669.955,1.291,1.291,0,0,0,1.015-.418.309.309,0,0,0,.1-.229C934.953,500.173,934.955,499.534,934.955,498.867Z" transform="translate(-918.256 -465.198)"/><path class="a" d="M1205.63,497.247c-.049-.883-.049-.882.8-1.111a5.752,5.752,0,0,1,2.781-.172,1.648,1.648,0,0,1,1.468,1.814q0,2.049,0,4.1c0,.432-.1.533-.525.534-.339,0-.679-.014-1.017.005-.242.014-.374-.035-.32-.309a1.341,1.341,0,0,0,0-.216,2.8,2.8,0,0,1-1.465.626,1.838,1.838,0,0,1-2.138-1.306,1.955,1.955,0,0,1,.811-2.037,6.323,6.323,0,0,1,1.984-.929,2.387,2.387,0,0,1,.475-.128c.311-.031.35-.2.328-.473-.058-.731-.306-.964-1.033-.922a6.108,6.108,0,0,0-1.852.447A.481.481,0,0,1,1205.63,497.247Zm3.188,1.631a3.016,3.016,0,0,0-1.325.771,1.577,1.577,0,0,0-.4.66.834.834,0,0,0,.661,1.151,1.279,1.279,0,0,0,.96-.4.306.306,0,0,0,.109-.224C1208.816,500.189,1208.818,499.543,1208.818,498.878Z" transform="translate(-1101.235 -465.197)"/><path class="a" d="M986.717,499.155c-.62,0-1.241.006-1.861,0-.176,0-.253.041-.221.226.039.229.057.462.108.688a1.566,1.566,0,0,0,2.686.785,1.943,1.943,0,0,0,.457-.631.3.3,0,0,1,.352-.213,2.009,2.009,0,0,0,.407,0c.24-.024.318.024.244.3a3.237,3.237,0,0,1-3.167,2.294,3.2,3.2,0,0,1-2.844-2.542,3.535,3.535,0,0,1,1.568-3.719,3.039,3.039,0,0,1,3.866.743,3.227,3.227,0,0,1,.515,1.9c0,.177-.092.177-.219.176C987.977,499.153,987.346,499.155,986.717,499.155Zm-1.061-.688c.29,0,.581,0,.872,0,.079,0,.193.032.18-.113a2.213,2.213,0,0,0-.365-1.262.844.844,0,0,0-1.44.149,2.778,2.778,0,0,0-.251,1.063c-.012.126.034.17.162.166C985.093,498.462,985.374,498.467,985.655,498.467Z" transform="translate(-952.681 -465.257)"/><path class="a" d="M1014.306,494.566c0-.833-.009-1.666.005-2.5,0-.231-.039-.333-.294-.306-.24.025-.484,0-.726.006-.121,0-.186-.033-.169-.163a.41.41,0,0,0,0-.058c-.014-.575-.014-.575.563-.575.62,0,.647,0,.615-.611-.069-1.317.876-1.82,1.9-1.995a5.106,5.106,0,0,1,1.789.069c.185.034.243.114.24.307-.01.571,0,.567-.54.462a2.721,2.721,0,0,0-.518-.051.93.93,0,0,0-1.01,1.014c0,.259-.11.6.044.755s.5.035.754.048c.1,0,.194,0,.29,0,.411,0,.411,0,.411.414,0,.381,0,.381-.387.381-.281,0-.564.018-.842-.006-.242-.021-.278.077-.277.291.008,1.579,0,3.158,0,4.737,0,.483-.1.581-.573.581-.33,0-.66-.017-.988.006-.252.018-.3-.077-.3-.31C1014.314,496.232,1014.306,495.4,1014.306,494.566Z" transform="translate(-972.928 -460.155)"/><path class="a" d="M1228.646,497.15a1.636,1.636,0,0,0,0,.305c.12.545-.189.8-.63,1a2.572,2.572,0,0,1-1.633.24,1.288,1.288,0,0,1-1.062-1.123,3.914,3.914,0,0,1-.049-.607c0-1.231-.008-2.461,0-3.692,0-.215-.05-.307-.27-.269a.843.843,0,0,1-.145,0c-.544,0-.532,0-.546-.546-.006-.218.052-.286.272-.275s.508.1.634-.044c.107-.125.036-.406.039-.618,0-.32,0-.639,0-.959a.344.344,0,0,1,.373-.385c.446-.005.892,0,1.337-.007.164,0,.161.082.161.2,0,.533.006,1.066-.005,1.6,0,.183.055.234.232.227.349-.013.7,0,1.047-.007.152,0,.22.026.224.2.011.613.02.613-.6.613-.233,0-.465.005-.7,0-.143,0-.206.032-.205.193.006,1.308,0,2.616.006,3.924,0,.326.172.475.5.457A1.941,1.941,0,0,0,1228.646,497.15Z" transform="translate(-1114.024 -461.399)"/><path class="a" d="M1187.682,499.925c.248-.547.48-1.055.709-1.563.33-.731.662-1.461.983-2.2a.289.289,0,0,1,.32-.212c.336.016.673,0,1.052,0l-.487,1.084q-1.14,2.539-2.28,5.077a.788.788,0,0,1-1.017.479c-.1-.029-.1-.108-.133-.172q-1.339-3.022-2.671-6.046c-.127-.288-.04-.419.274-.422.427,0,.853.007,1.28-.005a.269.269,0,0,1,.3.2c.5,1.151,1.012,2.3,1.52,3.448C1187.57,499.695,1187.616,499.786,1187.682,499.925Z" transform="translate(-1087.158 -465.26)"/><path class="a" d="M952.65,492q0-2.136,0-4.273c0-.4.094-.494.495-.5.378,0,.756.006,1.134,0,.146,0,.2.032.2.19q-.008,4.389,0,8.779c0,.318-.12.439-.439.445-.378.007-.756-.01-1.134.007-.208.009-.255-.06-.254-.259C952.654,494.925,952.65,493.461,952.65,492Z" transform="translate(-932.528 -459.429)"/><path class="a" d="M1110.427,494.357q0-1.918,0-3.836c0-.4.1-.494.5-.5s.815.014,1.22-.006c.22-.011.269.053.268.269-.009,2.092-.005,4.184-.005,6.277,0,.494,0,.988,0,1.482,0,.331-.123.455-.456.459-.436.005-.872-.009-1.308.006-.192.007-.218-.067-.218-.233C1110.43,496.973,1110.427,495.665,1110.427,494.357Z" transform="translate(-1037.935 -461.295)"/><path class="a" d="M1031.381,496.5c.2-.123.353-.227.516-.323a2.255,2.255,0,0,1,1.843-.228.42.42,0,0,1,.362.494c-.031.371-.007.747-.007,1.159a3.76,3.76,0,0,0-.911-.434,1.814,1.814,0,0,0-1.713.47c-.109.094-.089.2-.089.317q0,1.961,0,3.922c0,.422-.1.522-.533.523-.359,0-.717-.008-1.075,0-.168.006-.238-.027-.237-.218.007-1.918,0-3.835.005-5.753,0-.322.115-.426.446-.43.368,0,.737.017,1.1-.007.247-.016.334.062.292.3A1.4,1.4,0,0,0,1031.381,496.5Z" transform="translate(-983.896 -465.192)"/><path class="a" d="M1242.765,499.374q0,1.409,0,2.817c0,.4-.111.516-.515.518-.368,0-.736-.005-1.1,0-.153,0-.226-.026-.225-.2.006-1.936,0-3.872,0-5.809,0-.243.113-.386.366-.387.436,0,.872.008,1.307-.005.189-.006.167.1.167.22Q1242.764,497.951,1242.765,499.374Z" transform="translate(-1125.117 -465.495)"/><path class="a" d="M1241.7,488.467a1.012,1.012,0,1,1-1.029,1.007A1.016,1.016,0,0,1,1241.7,488.467Z" transform="translate(-1124.948 -460.257)"/></g></g></svg>