<svg xmlns="http://www.w3.org/2000/svg" width="134.609" height="57.692" viewBox="0 0 134.609 57.692"><defs><style>.a{fill:#bababa;}</style></defs><g transform="translate(-1197.959 -1057.929)"><g transform="translate(1197.959 1057.929)"><path class="a" d="M1210.546,1057.968c2.5,0,5,.061,7.495-.025,1.288-.044,1.755.374,1.736,1.677-.032,2.226.034,2.227,2.308,2.227,1.511,0,3.024-.058,4.531.021,1.018.053,1.405-.166,1.377-1.308-.064-2.59.011-2.592,2.663-2.592,4.532,0,9.066.07,13.6-.037,1.67-.039,2.44.445,2.162,2.144-.229,1.4.214,2.016,1.724,1.791,1.271-.19,1.733.5,1.719,1.755-.045,4.182-.1,8.367.024,12.545.051,1.677-.39,2.632-2.086,2.964-.548.107-1.394.066-1.368,1.014.023.822.777.745,1.274.937,3.047,1.178,2.578.579,2.6,3.785.02,3.6-.06,7.2.038,10.8.038,1.407-.36,2.239-1.788,2.422-1.768.227-2.485,1.178-2.129,2.943.572,2.837-.658,4.5-3.166,5.9-4.352,2.427-8.5,5.226-12.7,7.909a3.843,3.843,0,0,1-2.27.677,39.049,39.049,0,0,0-5.225.02,12.445,12.445,0,0,1-8.9-2.536c-3.452-2.441-7.08-4.651-10.745-6.768-1.634-.944-2.35-2.034-2.088-3.881.229-1.613.17-3.043-2.2-2.556-.725.15-1.139-.351-1.136-1.168.017-4.821.028-9.643-.006-14.464-.008-1.184.925-1.127,1.608-1.47.619-.311,1.732-.081,1.718-1.115-.013-1-1.094-.929-1.74-1.115a1.907,1.907,0,0,1-1.606-2.219c.093-4.122.079-8.248.007-12.371-.021-1.191.289-1.879,1.511-2.048,1.556-.215,1.949-1.1,1.895-2.647-.135-3.856-.226-3.171,3.247-3.214C1206.595,1057.948,1208.571,1057.968,1210.546,1057.968Zm37.675,37.36c0-3.6-.073-6.964.038-10.328.041-1.243-.433-1.658-1.51-2.032q-18.223-6.349-36.416-12.789c-3.378-1.189-6.756-2.375-10.314-3.626,0,3.557.059,6.915-.032,10.27a1.787,1.787,0,0,0,1.456,2.094c4.507,1.5,8.974,3.121,13.456,4.7Zm-30.568,17.321c0-4.044-.062-7.756.034-11.464.033-1.256-.461-1.39-1.5-1.372-3.137.055-6.275.03-9.413.012-.673,0-1.485.338-1.51-.982-.026-1.4.82-1.1,1.581-1.1q12.9-.007,25.8,0h1.382l0-.3-34.007-11.953c0,3.551.069,6.917-.032,10.279-.045,1.479.21,2.313,1.908,1.984,1.162-.225,1.692.187,1.563,1.47-.116,1.15-.005,2.321-.035,3.482a1.425,1.425,0,0,0,.677,1.457C1208.524,1106.9,1212.927,1109.681,1217.653,1112.649Zm-4.027-48.7c.111.195.142.338.215.364q16.481,5.812,32.961,11.623c.867.307.968.031.962-.733-.027-3.138-.112-6.28.033-9.411.074-1.593-.435-2.132-1.929-1.838-1.381.271-1.743-.381-1.55-1.615.053-.341-.04-.7.02-1.043.2-1.133-.333-1.335-1.356-1.321-3.894.055-7.789.019-11.683.026-.6,0-1.247-.209-1.276.864-.03,1.137.616,1,1.321,1,3.2-.009,6.394,0,9.591,0,.738,0,1.465-.2,1.49,1.048.025,1.28-.733,1.043-1.448,1.044q-12.294,0-24.588,0Zm16.624,27.3c-.659,1.959.038,2.9,1.855,3.344,1.515.369,2.967,1,4.447,1.508,1.729.6.833,2.046.914,3.106s-.918.585-1.438.607c-1.509.063-3.026.087-4.532,0-1.095-.064-1.532.2-1.468,1.4.106,1.97.03,3.95.03,5.926v5.527c3.259-2.047,6.207-3.882,9.136-5.745,1.708-1.087,4.074-1.862,4.891-3.429.859-1.648.224-4.075.241-6.161a3.383,3.383,0,0,1,.007-.349.85.85,0,0,0-.677-1.025C1239.174,1094.4,1234.7,1092.811,1230.25,1091.243Zm-2.411,17.465h.124c0-1.215-.046-2.432.016-3.644.043-.833-.082-1.267-1.085-1.23-2.022.075-4.05.049-6.075.008-.818-.016-1.127.247-1.1,1.092.057,1.676.022,3.355.022,5.032,0,3.537,0,3.564,3.461,3.527,1.544-.016,3.668.674,4.47-.28C1228.437,1112.307,1227.839,1110.256,1227.839,1108.708Zm-10.362-38.251c.559-1.825.125-2.846-1.721-3.283a36.672,36.672,0,0,1-4.751-1.634c-1.581-.614-.642-2-.757-3.021-.121-1.068.886-.631,1.411-.648,1.679-.055,3.362-.054,5.041-.005.76.022,1.005-.227.985-.984-.018-.662-.208-.908-.894-.9-4.172.024-8.345.017-12.518.006-.544,0-.879.1-.865.754.029,1.39.014,2.781,0,4.171,0,.492.268.7.7.852Q1210.8,1068.1,1217.477,1070.458Zm0,18.932c.639-2.037-.135-2.824-1.922-3.361-3.547-1.067-7-2.431-10.514-3.624-.5-.168-1.324-.941-1.551-.045-.19.753-.628,1.952.824,2.441C1208.7,1086.28,1213.06,1087.841,1217.482,1089.39Zm12.734-17.091c-.536,1.881-.049,2.962,1.871,3.346a27.5,27.5,0,0,1,3.622,1.208c2.827.993,5.651,2,8.678,3.065-.284-1.248.6-2.5-1.135-3.071C1238.914,1075.414,1234.621,1073.846,1230.216,1072.3Zm-2.385,20.723c-.308-1,.881-2.243-.471-2.768-2.463-.957-4.979-1.775-7.715-2.736.381,1.116-.58,2.339.7,2.849C1222.8,1091.346,1225.331,1092.147,1227.83,1093.022Zm.214-18.86c-.348-1.086.571-2.333-.645-2.829-2.449-1-4.99-1.772-7.735-2.723.376,1.13-.65,2.363.829,2.907C1222.925,1072.413,1225.383,1073.235,1228.044,1074.162Zm-4.214,27.609c1.043,0,2.087-.023,3.129.008.69.02,1.058-.125,1.035-.951-.02-.727-.185-1.029-.966-1.013-2.085.042-4.172.031-6.258.005-.681-.009-1.081.089-1.055.931.022.73.213,1.061.987,1.029C1221.743,1101.735,1222.787,1101.768,1223.83,1101.771Z" transform="translate(-1197.959 -1057.929)"/><path class="a" d="M1414.429,1077.018c0,2.529-.047,5.059.023,7.587.027.979-.35,1.158-1.208,1.12-.794-.036-1.409.079-1.389-1.118.073-4.643.025-9.287.043-13.932,0-.507-.306-1.284.679-1.264.759.016,1.595-.271,2.028.807a79.284,79.284,0,0,0,3.65,7.945c0-2.415.042-4.831-.02-7.244-.026-1.026.084-1.562,1.354-1.567,1.29,0,1.349.569,1.34,1.575-.041,4.469,0,8.939-.03,13.409,0,.49.367,1.323-.581,1.338-.779.012-1.7.422-2.184-.8-1.054-2.673-2.247-5.291-3.384-7.932Z" transform="translate(-1337.221 -1065.366)"/><path class="a" d="M1543.632,1077.677c0-2.379.03-4.758-.015-7.136-.016-.829.239-1.125,1.086-1.095,1.681.058,3.368-.028,5.048.039a2.773,2.773,0,0,1,2.843,2.881q.075,5.221.007,10.443a2.716,2.716,0,0,1-2.931,2.943c-1.566.046-3.138-.055-4.7.034-1.048.06-1.415-.207-1.368-1.322C1543.7,1082.206,1543.631,1079.94,1543.632,1077.677Zm6.388-.148c0-1.447-.031-2.894.012-4.34.024-.8-.216-1.194-1.075-1.121a9.555,9.555,0,0,1-1.735,0c-.833-.081-1.089.226-1.071,1.068.053,2.487.018,4.977.018,7.465,0,2.725,0,2.684,2.653,2.626.892-.02,1.249-.257,1.214-1.183C1549.978,1080.541,1550.02,1079.035,1550.021,1077.53Z" transform="translate(-1422.996 -1065.426)"/><path class="a" d="M1495.573,1132.529c-.222,1.637.487,3.626-.96,5.431-.379.473.36,1.832.568,2.788.315,1.449-.254,1.99-1.729,1.791-.62-.084-.915-.179-.959-.884a23.777,23.777,0,0,0-.458-2.38c-.2-1.216-1.13-.9-1.9-.927-1.1-.036-.742.788-.778,1.357a10.19,10.19,0,0,0,0,1.394c.066.89.039,1.47-1.214,1.472s-1.365-.5-1.356-1.525c.043-4.473.057-8.946-.007-13.418-.016-1.118.236-1.563,1.425-1.475,1.387.1,2.789-.017,4.182.03,2.131.073,3.146,1.149,3.178,3.3C1495.585,1130.411,1495.573,1131.34,1495.573,1132.529Zm-6.223-.44a16.983,16.983,0,0,1-.018,2.262c-.178,1.31.431,1.573,1.579,1.479,1.069-.088,2.3.3,2.1-1.564a19.277,19.277,0,0,1,0-3.828c.125-1.342-.391-1.587-1.656-1.669-1.729-.112-2.31.451-2.015,2.1A6.812,6.812,0,0,1,1489.35,1132.089Z" transform="translate(-1386.007 -1102.341)"/><path class="a" d="M1448.653,1134.381c0-1.624,0-3.249.005-4.873a5.658,5.658,0,0,1,.071-1.213c.407-1.8,1.953-2.358,5.791-2.135,1.8.1,3.026,1.063,3.061,2.682.078,3.653.027,7.309.028,10.964a1.332,1.332,0,0,1-.015.173c-.281,2.092-1.51,2.625-5.8,2.518-2.013-.05-3.019-.9-3.125-2.72-.054-.925-.012-1.856-.013-2.784Q1448.65,1135.686,1448.653,1134.381Zm6.377-.054V1131.2c0-2.47,0-2.4-2.543-2.423-1.134-.009-1.344.4-1.316,1.417.067,2.431.021,4.864.021,7.3,0,2.547,0,2.485,2.553,2.458,1.127-.012,1.361-.446,1.305-1.453C1454.973,1137.11,1455.031,1135.717,1455.03,1134.327Z" transform="translate(-1361.169 -1102.322)"/><path class="a" d="M1377.05,1142.257c-.639,0-1.283.051-1.916-.011a2.482,2.482,0,0,1-2.3-1.855,8.263,8.263,0,0,1,0-3.959c.1-.438.788.067,1.208.154.75.154,1.354.421,1.184,1.356-.28,1.53.475,1.992,1.839,1.745.669-.121,1.784.5,1.914-.529.136-1.081.651-2.42-.787-3.264-1.4-.822-2.711-1.788-4.067-2.682a2.831,2.831,0,0,1-1.44-2.6c.055-1.537-.409-3.368,1.36-4.179a7.861,7.861,0,0,1,6.253-.008c1.245.495,1.9,2.841,1.376,4.176-.363.928-1.2.35-1.812.472-.58.116-.785-.2-.822-.8-.035-.56.425-1.456-.457-1.609-1.007-.174-2.275-.464-3.045.133-.7.54-.587,1.663.393,2.309,1.356.894,2.716,1.785,4.05,2.712,1.836,1.275,2.46,5.634,1.088,7.374C1379.993,1142.559,1378.48,1142.255,1377.05,1142.257Z" transform="translate(-1311.66 -1102.105)"/><path class="a" d="M1561.478,1142.551c-3.852,0-4.957-1.356-4.379-5.345.05-.345.039-.846.516-.612.778.382,2.193.041,2.075,1.564-.092,1.2.05,2.139,1.6,1.8.754-.165,1.979.6,2.177-.651.184-1.154.505-2.517-1.061-3.311a32.457,32.457,0,0,1-3.632-2.38,4.632,4.632,0,0,1-1.516-5.425c.6-1.737,2.033-2.049,3.655-1.984.753.03,1.513-.046,2.262.016a3.35,3.35,0,0,1,2.813,4.753c-.349.763-1.119.264-1.688.373-.614.118-.753-.231-.8-.8s.444-1.468-.475-1.608a5.108,5.108,0,0,0-3.041.14c-.587.337-.65,1.636.379,2.3,1.365.878,2.686,1.824,4.057,2.69a2.9,2.9,0,0,1,1.6,3.01,6.641,6.641,0,0,0-.005.87C1566.019,1142.109,1565.581,1142.553,1561.478,1142.551Z" transform="translate(-1431.689 -1102.379)"/><path class="a" d="M1372.818,1076.593c0-1.976.051-3.953-.021-5.926-.036-.994.268-1.3,1.269-1.272.91.029,1.335.166,1.316,1.231-.066,3.66.074,7.325-.071,10.98-.066,1.663.781,1.57,1.9,1.575,1.169.005,2.1.151,2.027-1.625-.152-3.6,0-7.2-.077-10.805-.025-1.12.339-1.344,1.374-1.364,1.133-.022,1.326.407,1.311,1.428-.058,3.834-.01,7.669-.025,11.5-.009,2.384-1.009,3.37-3.385,3.406-5.423.082-5.624-.114-5.624-5.473Q1372.818,1078.423,1372.818,1076.593Z" transform="translate(-1311.791 -1065.389)"/><path class="a" d="M1506.356,1077.607c0-2.261.055-4.525-.022-6.784-.035-1.035.2-1.45,1.322-1.4,2.085.086,4.179.094,6.263,0,1.25-.058,1.047.684,1.074,1.435.028.787-.027,1.32-1.082,1.234-1.268-.1-2.554.037-3.825-.045-.942-.06-1.137.28-1.149,1.172-.039,3.087-.078,3.112,3.034,3.078,1.128-.012,2.072-.091,1.865,1.567-.1.838-.332,1.126-1.138,1.059-.577-.047-1.174.073-1.737-.026-1.7-.3-2.158.381-2.04,2.043.16,2.237.039,2.246,2.356,2.245.7,0,1.395.038,2.088-.01,1.013-.071,1.674-.063,1.682,1.37.009,1.5-.835,1.2-1.659,1.2-1.914.006-3.832-.069-5.741.029-1.127.058-1.353-.341-1.316-1.381C1506.41,1082.132,1506.354,1079.868,1506.356,1077.607Z" transform="translate(-1398.728 -1065.407)"/><path class="a" d="M1411,1134.321c0-2.318.04-4.636-.021-6.953-.024-.906.231-1.225,1.16-1.185,1.562.069,3.132-.035,4.694.036a2.813,2.813,0,0,1,2.911,2.995c.039,2.027.032,4.056,0,6.084-.028,2.081-1.008,3.024-3.118,3.074-.058,0-.116,0-.174,0-2.831.037-2.9.038-2.861,2.9.016,1.158-.408,1.291-1.4,1.307-1.043.016-1.236-.368-1.212-1.3C1411.038,1138.958,1411,1136.639,1411,1134.321Zm2.552-1.932h-.005c0,.872.011,1.744,0,2.615-.008.459.1.72.626.844,2.257.531,3.024-.044,3.023-2.344a30.5,30.5,0,0,1,.023-3.135c.131-1.268-.406-1.464-1.564-1.57-1.821-.165-2.409.477-2.11,2.2A8.226,8.226,0,0,1,1413.55,1132.389Z" transform="translate(-1336.648 -1102.366)"/><path class="a" d="M1524.958,1135.69c0-1.685-.1-3.377.03-5.052.105-1.4-.231-2.084-1.746-1.792-1.218.235-1.6-.282-1.537-1.5.045-.926.318-1.185,1.213-1.164,2.207.053,4.417.061,6.624-.006,1.019-.031,1.247.336,1.255,1.305.009,1.037-.229,1.574-1.339,1.369-1.625-.3-2,.4-1.947,1.957.123,3.481-.016,6.971.07,10.455.029,1.172-.423,1.294-1.413,1.31-1.036.017-1.263-.354-1.229-1.3C1525,1139.409,1524.958,1137.549,1524.958,1135.69Z" transform="translate(-1408.738 -1102.36)"/><path class="a" d="M1473.925,1069.459c.987,0,1.976.042,2.96-.011s1.583-.023,1.584,1.31c0,1.307-.573,1.454-1.552,1.311-1.321-.193-1.785.237-1.737,1.663.118,3.479.039,6.963.041,10.445,0,.847.249,1.649-1.226,1.646-1.5,0-1.333-.78-1.328-1.725.019-3.482-.061-6.967.045-10.445.04-1.327-.33-1.8-1.626-1.583-1.147.19-1.849-.026-1.715-1.5.086-.946.374-1.178,1.245-1.126C1471.716,1069.508,1472.822,1069.459,1473.925,1069.459Z" transform="translate(-1374.658 -1065.419)"/><path class="a" d="M1453.529,1077.552c0,2.323-.056,4.648.026,6.968.037,1.05-.35,1.267-1.3,1.239-.844-.026-1.359-.018-1.341-1.161.074-4.645.064-9.292.007-13.936-.013-1.018.307-1.247,1.268-1.265,1.058-.02,1.409.26,1.364,1.363C1453.464,1073.02,1453.528,1075.288,1453.529,1077.552Z" transform="translate(-1362.653 -1065.394)"/><path class="a" d="M1372.954,1187.153a8.578,8.578,0,0,1,.012-1.215c.156-1.042-.583-2.683.382-3.014a7.128,7.128,0,0,1,4.6.093c1.052.379,1.779,1.493,1.38,2.326-.939,1.962,1.457,4.66-1.336,6.043-1.382.685-2.971.252-4.467.275-.7.011-.566-.588-.568-1.031C1372.948,1189.471,1372.952,1188.312,1372.954,1187.153Zm3.275,2.8c.35-.069,1.4.458,1.509-.831.092-1.1-.7-1.18-1.495-1.106-.681.064-1.661-.456-1.658.991C1374.589,1190.088,1375.131,1190.085,1376.229,1189.958Zm.3-3.577c.249-.025,1.239.252,1.209-1.026-.028-1.179-.958-.928-1.648-.9-.624.022-1.51-.436-1.511.916C1374.58,1186.594,1375.282,1186.429,1376.531,1186.381Z" transform="translate(-1311.82 -1139.091)"/><path class="a" d="M1460.1,1187.947c0-1.329.022-2.658-.01-3.987-.015-.628.123-.962.849-.955s.866.32.858.957c-.027,2.261,0,4.523-.023,6.784-.006.447.314,1.107-.546,1.212a1.258,1.258,0,0,1-1.431-.691,28.2,28.2,0,0,0-2.8-4.4c0,1.35,0,2.7,0,4.05,0,.506.112,1.047-.732,1.06-.86.013-.908-.449-.9-1.1.021-2.2-.007-4.407.02-6.61.006-.452-.312-1.125.522-1.232a1.228,1.228,0,0,1,1.444.649c.776,1.467,1.641,2.887,2.469,4.327Z" transform="translate(-1365.522 -1139.363)"/><path class="a" d="M1407.835,1191.75a1.837,1.837,0,0,1-2.632-.943c-.308-.6-.6-1.3-1.508-1.163-1.073.167-.5.99-.563,1.514-.064.572-.228.824-.832.815-.586-.008-.831-.224-.827-.818.016-2.428.008-4.858.008-7.286,0-.42.007-.849.592-.843a23.391,23.391,0,0,1,3.978.111c1.735.323,2.794,3.37,1.494,5.089C1406.471,1189.646,1406.7,1190.539,1407.835,1191.75Zm-3.257-3.808c1.293.318,1.629-.267,1.673-1.556.05-1.433-.486-1.674-1.786-1.741-1.637-.084-1.324.883-1.385,1.833C1403.011,1187.578,1403.167,1188.339,1404.579,1187.942Z" transform="translate(-1330.462 -1139.356)"/><path class="a" d="M1484.564,1187.107a9.483,9.483,0,0,1,.006-1.044c.119-1.073-.534-2.714.284-3.1a6.91,6.91,0,0,1,4.422-.044,2.121,2.121,0,0,1,1.634,2.2c.011,1.393.034,2.788,0,4.18a2.3,2.3,0,0,1-2.142,2.336c-.114.022-.23.031-.345.042C1484.566,1192.038,1484.566,1192.038,1484.564,1187.107Zm4.684.149a11.784,11.784,0,0,1,.009-1.379c.135-1.133-.331-1.467-1.461-1.494-1.228-.029-1.831.206-1.644,1.581a12.829,12.829,0,0,1,.009,2.584c-.069,1.016.087,1.568,1.362,1.5,1.165-.06,1.932-.179,1.732-1.588A8.627,8.627,0,0,1,1489.248,1187.257Z" transform="translate(-1384.476 -1139.082)"/><path class="a" d="M1515.331,1183.041a2.659,2.659,0,0,1,2.64,1.043c.266.4.767.941.237,1.368a1.015,1.015,0,0,1-1.419-.153c-.488-.839-1.2-.507-1.847-.571-.5-.05-.961.058-1.038.659-.082.634.288.952.866,1.1.729.188,1.459.379,2.18.6a2.208,2.208,0,0,1,1.634,2.541,2.232,2.232,0,0,1-2.019,2.27c-1.372.163-2.822.357-3.8-1.031-.277-.391-.581-.894-.253-1.264a1.007,1.007,0,0,1,1.405.028c.134.1.2.3.335.4a2.837,2.837,0,0,0,2.333.148c.349-.076.463-.5.394-.876-.174-.934-1.058-.763-1.653-1-.846-.34-1.871-.283-2.51-1.073a2.649,2.649,0,0,1-.286-2.955C1513.084,1183.091,1514.2,1182.964,1515.331,1183.041Z" transform="translate(-1402.557 -1139.374)"/><path class="a" d="M1434.2,1190.673c-.042.7.16,1.238-.574,1.3-.613.053-.959-.1-1.011-.812-.084-1.17-1.028-.812-1.718-.85s-1.445-.163-1.432.925c.009.766-.541.791-1.087.72-.843-.109-.6-.806-.483-1.216.674-2.381,1.418-4.744,2.151-7.108a.792.792,0,0,1,.914-.607c.4.037.849-.032,1.006.469C1432.742,1185.968,1433.506,1188.442,1434.2,1190.673Zm-3.094-4.421a2.984,2.984,0,0,0-.67,2.275c.03.117.925.235,1.07.061C1432.191,1187.768,1431.066,1187.1,1431.105,1186.253Z" transform="translate(-1347.584 -1139.374)"/></g></g></svg>