<svg xmlns="http://www.w3.org/2000/svg" width="135.143" height="84.558" viewBox="0 0 135.143 84.558"><defs><style>.a{fill:#bababa;}</style></defs><g transform="translate(0 16.95)"><g transform="translate(0 3.659)"><path class="a" d="M66.241,61.578l.01,9.7,4.475,4.544h8.265v4.274H74.077V77.317H66.251v5.692l4.475,4.514h11.6l4.471-4.514v-10.1L82.248,68.3H74.014V64.6h4.878V66.87h7.9V61.546l-4.472-4.512H70.754l-4.513,4.544Z" transform="translate(-42.304 -57.034)"/><path class="a" d="M141.565,57.033V80.259h-4.814V57.033h-7.518V83.412l4.064,4.108h11.97l4.067-4.109V57.033Z" transform="translate(-82.534 -57.033)"/><path class="a" d="M206.994,57.034H190.97V87.521h8.068V79.653h7.925l4.658-4.683V61.647L207,57.034Zm-3.7,15.193h-4.289V64.661h4.289v7.566Z" transform="translate(-121.962 -57.034)"/><path class="a" d="M271.693,87.521V80.363h-9.571V75.681h9.571v-7.29h-9.54V64.4h9.54V57.034H254.329V87.521Z" transform="translate(-162.426 -57.034)"/><path class="a" d="M329.676,61.546l-4.6-4.512H308.9V87.521h7.931V77.444h4.608V87.521h8.128V75.476l-2.085-2.022,2.189-2.179V61.546Zm-8.233,8.889h-4.608v-5.4h4.608v5.4Z" transform="translate(-197.28 -57.034)"/><path class="a" d="M12.785,172.87H7.532v-16h5.253v4.476h7.122v-7.591l-4.072-4.1H4.1L0,153.78v22.243l4.074,4.108H15.837l4.072-4.108V163.2H10.182v7.123h2.605v2.543Z" transform="translate(0 -116.182)"/><path class="a" d="M61.058,180.132H77.225v-7.021H69.57V149.65H61.058v30.482Z" transform="translate(-38.994 -116.182)"/><path class="a" d="M124.135,149.649v23.22h-4.81v-23.22H111.8v26.374l4.066,4.108h11.97l4.068-4.108V149.649Z" transform="translate(-71.399 -116.182)"/><path class="a" d="M191.328,180.13v-7.161h-9.559V168.29h9.559V161H181.8V157h9.531v-7.349H173.979v30.482Z" transform="translate(-111.111 -116.18)"/></g><g transform="translate(131.555)"><path class="a" d="M364.061,48.7a1.794,1.794,0,1,1,1.8,1.8h0a1.8,1.8,0,0,1-1.8-1.8Zm3.25,0a1.453,1.453,0,0,0-1.45-1.457h0a1.46,1.46,0,0,0-.009,2.921h.009a1.452,1.452,0,0,0,1.451-1.454Zm-.562.985h-.441l-.429-.825H365.5v.825h-.38V47.74h.935a1.046,1.046,0,0,1,.527.094.564.564,0,0,1,.228.506c0,.35-.188.5-.529.52Zm-.684-1.113c.217,0,.365-.046.365-.3s-.274-.25-.462-.25h-.47v.546Z" transform="translate(-364.061 -46.908)"/></g></g><g transform="translate(11.252 0)"><path class="a" d="M38.921,24.737l-1.764.162,1.123,12.094-3.887.361-1.12-12.093-1.869.173L31.139,22.6l7.52-.7Z" transform="translate(-31.139 -13.989)"/><path class="a" d="M63.888,34.485l-3.782.351L59.536,28.7l-.767.068.569,6.143-3.778.349L54.175,20.333l3.78-.35.553,5.952.765-.07-.552-5.956L62.5,19.56Z" transform="translate(-45.851 -12.493)"/><path class="a" d="M87.377,20.438l-2.591.241.258,2.788,2.165-.2.262,2.83-2.168.2.338,3.641,2.738-.253.263,2.831-6.52.6L80.74,18.2l6.371-.59Z" transform="translate(-62.816 -11.245)"/><path class="a" d="M125.857,27.034l-2.016,2.286-4.079.377-2.446-1.873-.993-10.742,2.056-2.31,3.909-.363,2.574,1.882Zm-4.815-9.653-.766.072.86,9.263.763-.072Z" transform="translate(-85.541 -9.203)"/><path class="a" d="M151.668,17.831l-1.507,1.548,1.771,1.284.557,5.995L148.812,27,148.257,21l-.763.069.555,5.994-3.781.35-1.383-14.924,6.01-.557,2.4,1.9ZM147.69,14.9l-.763.072.3,3.267.763-.072Z" transform="translate(-102.505 -7.624)"/><path class="a" d="M173.393,10.013l1.384,14.924-3.887.361-1.384-14.924Z" transform="translate(-119.506 -6.395)"/><path class="a" d="M193.158,13.592l-3.781.35-.267-2.891-.935.086.859,9.263.933-.087-.19-2.063-.486.046-.263-2.831,4.27-.4.523,5.641-1.869,2.272-4.1.382L185.323,21.5l-.995-10.741,1.928-2.3,4.183-.385,2.385,1.9Z" transform="translate(-128.972 -5.156)"/><path class="a" d="M214.65,6.188l1.384,14.924-3.889.359L210.761,6.547Z" transform="translate(-145.854 -3.953)"/><path class="a" d="M234.638,18.659l-2.933.274-2.277-5.857-.129.011.559,6.017-3.546.329L224.927,4.509l2.741-.253,2.48,6.194.15-.014-.591-6.37,3.547-.329Z" transform="translate(-154.901 -2.387)"/><path class="a" d="M262.847,16.451l-3.674.341-.485-2.683-1.488.137.039,2.727-3.674.341L254.18,2.2l5.224-.486Zm-5.64-10.917-.232.023.156,5.843,1.084-.1Z" transform="translate(-173.191 -1.097)"/><path class="a" d="M282.48,12.1l2.74-.253.264,2.831-6.63.614L277.471.363,281.36,0Z" transform="translate(-188.458 -0.002)"/></g></svg>