<svg xmlns="http://www.w3.org/2000/svg" width="108.607" height="79.702" viewBox="0 0 108.607 79.702"><defs><style>.a{fill:#bababa;}</style></defs><path class="a" d="M54.245,39.174H38.055v6.767H53.822v5.9h-15.8v13.2H34.1c-.846,0-1.694-.034-2.537.013-.59.032-.732-.185-.728-.748.024-3.281.012-6.562.012-9.843,0-7.177.009-14.355-.014-21.532,0-.689.161-.908.886-.905q10.843.042,21.686,0c.692,0,.864.2.851.866C54.219,34.938,54.245,36.985,54.245,39.174Z" transform="translate(-20.956 -21.718)"/><path class="a" d="M197.785,38.675h-9.48v-6.5h25.819v6.5h-9.358V65.09h-6.981Z" transform="translate(-116.61 -21.81)"/><path class="a" d="M136.112,186.6l2.7,4.346c-.766,0-1.4.034-2.022-.02a.9.9,0,0,1-.546-.424c-.608-.979-1.227-1.955-1.754-2.977a1.2,1.2,0,0,0-1.385-.771,7.94,7.94,0,0,1-1.059.008v4.149h-1.957V179.663c.573,0,1.15,0,1.726,0,1.154,0,2.309-.018,3.462.015a3.481,3.481,0,0,1,1.074,6.792A2.367,2.367,0,0,0,136.112,186.6Zm-4.012-1.644c1,0,1.964.042,2.925-.011a1.756,1.756,0,0,0,.084-3.5c-.983-.077-1.976-.017-3.009-.017Z" transform="translate(-81.248 -111.398)"/><path class="a" d="M44.164,186.621,46.879,191c-.778,0-1.408.035-2.03-.021a.917.917,0,0,1-.543-.438c-.594-.957-1.2-1.911-1.715-2.911a1.244,1.244,0,0,0-1.428-.82,7.132,7.132,0,0,1-1,.007v4.125H38.173V179.791c1.981,0,3.954-.129,5.9.04a3.075,3.075,0,0,1,2.7,3,3.23,3.23,0,0,1-2.179,3.635C44.477,186.515,44.358,186.554,44.164,186.621Zm-4-1.614c1,0,1.97.04,2.931-.011a1.677,1.677,0,0,0,1.656-1.675,1.653,1.653,0,0,0-1.506-1.812c-1.006-.094-2.028-.021-3.081-.021Z" transform="translate(-25.412 -111.45)"/><path class="a" d="M101.117,190.892c-.211.023-.311.04-.412.044-1.764.054-1.777.058-2.41-1.594a.741.741,0,0,0-.822-.583c-1.332.033-2.665.027-4,0a.7.7,0,0,0-.784.528c-.661,1.71-.678,1.7-2.522,1.644-.076,0-.151-.019-.341-.044l1.22-3.119c.988-2.524,1.989-5.044,2.954-7.577a.753.753,0,0,1,.847-.552c1.876,0,1.873-.017,2.565,1.748q1.708,4.357,3.423,8.712C100.93,190.335,101.005,190.574,101.117,190.892Zm-3.624-3.911-2.015-5.308-2,5.308Z" transform="translate(-56.791 -111.388)"/><path class="a" d="M217.841,179.782h1.895c.015.26.042.529.042.8,0,1.947-.02,3.894.009,5.84a2.825,2.825,0,0,0,3.858,2.914,2.7,2.7,0,0,0,1.911-2.9c.02-1.921.005-3.842.005-5.763,0-.277,0-.553,0-.882h2.016c0,1.66.016,3.292-.006,4.923a21.649,21.649,0,0,1-.154,3.135,3.573,3.573,0,0,1-2.963,3.137,9.458,9.458,0,0,1-3.261.087,3.668,3.668,0,0,1-3.314-3.59C217.722,184.94,217.841,182.381,217.841,179.782Z" transform="translate(-134.525 -111.473)"/><path class="a" d="M265.335,190.906c-.832,0-1.514.028-2.19-.019-.175-.013-.367-.238-.493-.408-.937-1.279-1.859-2.568-2.854-3.948-.774,1.08-1.595,2.064-2.228,3.156a2.2,2.2,0,0,1-2.493,1.231,5.205,5.205,0,0,0-.727,0c.137-.241.215-.413.324-.564,1.111-1.534,2.207-3.079,3.352-4.588a.869.869,0,0,0,.014-1.251c-1.168-1.55-2.28-3.141-3.525-4.871.847,0,1.544-.029,2.236.021.168.012.345.265.471.441.849,1.176,1.685,2.362,2.584,3.627.812-1.16,1.6-2.225,2.316-3.334a1.407,1.407,0,0,1,1.491-.777,12.6,12.6,0,0,0,1.473.01l-3.957,5.485Z" transform="translate(-156.728 -111.362)"/><path class="a" d="M139.01,59.423H138.2V5.769h.812Z" transform="translate(-86.172 -5.769)"/><path class="a" d="M5.666,179.752H13.29v1.666H7.684v2.95H13.23v1.746H7.64v4.826H5.666Z" transform="translate(-5.666 -111.455)"/><path class="a" d="M182.911,179.756h8.766v1.684h-3.387v9.525H186.3V181.5h-3.39Z" transform="translate(-113.333 -111.457)"/><path class="a" d="M75.387,191.019h-1.9v-11.19h1.9Z" transform="translate(-46.861 -111.501)"/></svg>