<svg xmlns="http://www.w3.org/2000/svg" width="115.896" height="93.356" viewBox="0 0 115.896 93.356"><defs><style>.a{fill:#bababa;}</style></defs><g transform="translate(-1000.162 -263.705)"><g transform="translate(1000.162 263.706)"><path class="a" d="M1070.609,290.739c.5-.5,1.234-.569,1.729-1.053.471-.459.557-.8.174-1.313-.492-.661-.431-1.045.261-1.49a7.193,7.193,0,0,0,1.227-.819,1.189,1.189,0,0,0-.038-1.965,8.67,8.67,0,0,1-2.787-4.106,2.825,2.825,0,0,1-.1-.317c-.2-1.166-.206-1.12-1.4-1.306a6.852,6.852,0,0,1-4.825-2.834c-.125-.18-.236-.508-.534-.417-.249.077-.192.378-.22.594a16.979,16.979,0,0,1-3.449,7.774c-1.908,2.622-3.889,5.19-5.82,7.794-1.208,1.628-2.5,3.191-3.711,4.815-1.416,1.9-2.9,3.756-4.33,5.644-1.311,1.725-2.669,3.413-4,5.124-1.769,2.278-3.546,4.55-5.282,6.853a2.144,2.144,0,0,1-2.174,1.035,11.944,11.944,0,0,1-7.84-3.842,16.216,16.216,0,0,1-3.638-7.539,32.253,32.253,0,0,1-.481-10.176,18.788,18.788,0,0,1,3.016-9.013,10.807,10.807,0,0,1,7.738-4.68,11.147,11.147,0,0,1,5.582.386c.042.015.088.022.129.039,1.032.406,1,.408.931-.674a14.325,14.325,0,0,1,1.657-8.648,11.573,11.573,0,0,1,4.5-4.22,24.235,24.235,0,0,1,11.273-2.671,30.6,30.6,0,0,1,9.7,1.319,12.982,12.982,0,0,1,9,8.175,17.023,17.023,0,0,1,.867,6.7,16.444,16.444,0,0,0,.037,2.22,7.254,7.254,0,0,0,2.259,4.172c.27.3.584.559.851.862a.977.977,0,0,1-.059,1.484,7.394,7.394,0,0,1-1.326.916,1.047,1.047,0,0,0-.365,1.591c.412.665.342.98-.351,1.394-.346.207-.713.378-1.077.554-.489.237-.607.466-.016.725a1.152,1.152,0,0,1,.478.36.709.709,0,0,1-.237,1.13c-1.044.555-1.157.831-.922,1.946.45,2.127-.576,3.061-2.452,3.129a41.342,41.342,0,0,1-4.517-.01c-2.578-.194-4.424,1.057-5.99,2.864-2.329,2.689-4.357,5.616-6.54,8.421-2.13,2.737-4.215,5.509-6.317,8.268-.987,1.3-1.978,2.59-2.948,3.9-.3.4-.482.46-.867.052a24.49,24.49,0,0,1-3.483-4.643,1.356,1.356,0,0,1,.165-1.753c1.143-1.427,2.178-2.94,3.286-4.395q3.946-5.186,7.924-10.347c.707-.916,1.453-1.8,2.227-2.665a6.419,6.419,0,0,1,4.905-2.292c1.842-.008,3.689.036,5.527-.063,1.985-.1,2.813-1.3,2.39-3.229-.239-1.091-.107-1.366.884-1.836a.887.887,0,0,0,.1-1.461A6.281,6.281,0,0,0,1070.609,290.739Z" transform="translate(-1001.015 -263.706)"/><path class="a" d="M1096.1,297.02a27.689,27.689,0,0,1-1.53,9.685,12.858,12.858,0,0,1-5.651,7.094,13.259,13.259,0,0,1-7.578,1.623,8.055,8.055,0,0,1-3.9-1.3c-.379-.248-.535-.239-.558.271a13.911,13.911,0,0,1-3.244,7.828,28.761,28.761,0,0,1-7.427,6.618,37.135,37.135,0,0,1-5.44,2.908,1.4,1.4,0,0,1-.991.067,20.241,20.241,0,0,1-4.38-2.031c-.345-.207-.378-.384-.149-.686q4.023-5.316,8.04-10.635c1.574-2.084,3.142-4.172,4.724-6.249,1.1-1.44,2.163-2.905,3.335-4.28a22.393,22.393,0,0,1,2.593-2.617c1.845-1.555,4.037-1.544,6.256-1.406a25.439,25.439,0,0,0,3.029-.025c1.879-.108,2.356-1.34,2.166-2.92-.037-.312-.14-.618-.149-.929a.987.987,0,0,1,.683-1.1c.393-.1.667-.253.734-.659a.989.989,0,0,0-.44-1.05c-.585-.411-.571-.412.073-.732a2.851,2.851,0,0,0,1.264-.856.793.793,0,0,0-.011-1.087c-.6-.734-.457-1.193.4-1.635a7.307,7.307,0,0,0,.866-.5,1.309,1.309,0,0,0,.13-2.16,11.939,11.939,0,0,1-2.112-2.508c-.957-1.525-.81-3.185-.672-4.839a9.974,9.974,0,0,0-.016-1.74c-.062-.68.06-.792.7-.6a10.763,10.763,0,0,1,2.8,1.258,12.531,12.531,0,0,1,4.914,6.533A27.106,27.106,0,0,1,1096.1,297.02Z" transform="translate(-1002.197 -264.327)"/><path class="a" d="M1014.2,347.264c-.055,1.946.127,4.243-.1,6.528-.251,2.515-1.347,4.509-3.817,5.46a10.87,10.87,0,0,1-5.371.53,9.632,9.632,0,0,1-4.107-1.373c-.448-.291-.591-.507-.184-.978a24.562,24.562,0,0,0,1.614-2.146c.288-.418.5-.408.909-.125a5.7,5.7,0,0,0,4.913.99,3.181,3.181,0,0,0,2.174-3.7c-.065-.259-.191-.262-.376-.1-2.234,1.9-4.588,1.634-6.922.274a5.785,5.785,0,0,1-2.613-3.987c-.6-2.665.536-6.336,3.181-7.755a5.916,5.916,0,0,1,6.615.958c.1.1.123.325.34.261.248-.074.146-.293.156-.456a3.132,3.132,0,0,0-.013-.539c-.042-.376.1-.526.492-.518q1.281.025,2.562-.012c.461-.013.56.2.557.616C1014.19,343.1,1014.2,345.008,1014.2,347.264Zm-3.684-.275a3.145,3.145,0,0,0-3.14-3.234,3.172,3.172,0,1,0,3.14,3.234Z" transform="translate(-1000.162 -266.542)"/><path class="a" d="M1076.615,353.755c-3.393.072-6.124-1.694-7.007-4.7a6.533,6.533,0,0,1,5.07-8.62,7.232,7.232,0,0,1,7.112,1.966,6.437,6.437,0,0,1,1.438,6.752,6.294,6.294,0,0,1-5.052,4.4A7.54,7.54,0,0,1,1076.615,353.755Zm-3.362-6.789a3.172,3.172,0,1,0,3.229-3.23A3.012,3.012,0,0,0,1073.253,346.967Z" transform="translate(-1002.722 -266.54)"/><path class="a" d="M1098.029,347.012c0,1.932-.018,3.863.012,5.8.008.516-.157.667-.655.646a18.713,18.713,0,0,0-2.289.012c-.667.053-.876-.211-.832-.833.016-.22.2-.546-.111-.657-.243-.086-.336.237-.478.392a4.682,4.682,0,0,1-4.826,1.229,3.713,3.713,0,0,1-2.949-3.184,11.348,11.348,0,0,1-.235-2.407c.011-2.269.017-4.537,0-6.806,0-.46.113-.632.6-.611a21.191,21.191,0,0,0,2.559-.013c.637-.05.747.2.74.764-.028,1.909-.016,3.818,0,5.727a6.086,6.086,0,0,0,.2,1.863,1.907,1.907,0,0,0,1.611,1.413,2.267,2.267,0,0,0,2.227-.928,3.1,3.1,0,0,0,.491-1.724c.006-2.134.039-4.267.013-6.4-.007-.568.151-.738.715-.706a21.806,21.806,0,0,0,2.559,0c.522-.031.659.137.653.637-.022,1.932-.009,3.863-.009,5.8Z" transform="translate(-1003.329 -266.553)"/><path class="a" d="M1050.5,353.752a7.906,7.906,0,0,1-4.182-1.03c-.471-.282-.7-.491-.246-1a15.611,15.611,0,0,0,1.416-1.869c.267-.415.448-.338.716-.057a3.392,3.392,0,0,0,3.413.879c.441-.094.82-.286.835-.817s-.333-.8-.78-.967c-.926-.352-1.917-.447-2.861-.722a4.3,4.3,0,0,1-2.3-1.3,3.905,3.905,0,0,1,1.236-5.738,7.484,7.484,0,0,1,7.343.136c.273.142.5.345.242.692-.5.66-1.005,1.312-1.494,1.979-.2.269-.319.334-.619.069a2.958,2.958,0,0,0-2.29-.776,1.347,1.347,0,0,0-1.247.947c-.079.64.387.849.858,1.039a16.328,16.328,0,0,0,2.284.567,5.929,5.929,0,0,1,2.538,1.163,3.827,3.827,0,0,1-1.008,5.992A8.552,8.552,0,0,1,1050.5,353.752Z" transform="translate(-1001.85 -266.54)"/><path class="a" d="M1114.532,340.284a7.542,7.542,0,0,1,4.225.964c.4.244.488.446.171.834-.468.571-.887,1.182-1.327,1.775-.219.3-.379.459-.757.091a2.667,2.667,0,0,0-2.8-.545,1.018,1.018,0,0,0-.641.941c-.01.437.309.611.641.776a12.913,12.913,0,0,0,2.327.64c.453.129.911.239,1.355.392a3.3,3.3,0,0,1,2.376,3.17,3.4,3.4,0,0,1-1.78,3.445,8.55,8.55,0,0,1-8.429-.136c-.411-.227-.487-.443-.165-.835.5-.6.96-1.238,1.4-1.885.266-.391.466-.446.816-.086a3.412,3.412,0,0,0,3.29.877c.476-.089.885-.314.94-.823s-.323-.792-.76-.975c-1-.421-2.093-.476-3.116-.81-1.855-.6-2.678-1.515-2.8-3.179a3.883,3.883,0,0,1,2.338-4A5.759,5.759,0,0,1,1114.532,340.284Z" transform="translate(-1004.211 -266.542)"/><path class="a" d="M1100.628,343.589c0-2.135.017-4.27-.014-6.4-.007-.477.137-.564.569-.549.921.034,1.845.049,2.764,0,.537-.028.656.172.636.656-.037.853.015,1.71-.042,2.561-.036.51.156.626.607.61.786-.029,1.574-.011,2.359-.037.382-.013.59.07.573.517-.029.717-.019,1.438,0,2.157.01.383-.144.511-.52.5-.808-.024-1.618-.006-2.427-.024-.428-.01-.627.061-.6.6.066,1.256.028,2.517.024,3.776-.006,1.982.758,2.667,2.722,2.3.674-.124.878-.02.808.675a15.959,15.959,0,0,0-.01,1.82c0,.287-.014.533-.373.611a8.324,8.324,0,0,1-4.842-.161,3.257,3.257,0,0,1-2.215-3.2c-.051-2.134-.012-4.271-.012-6.407Z" transform="translate(-1003.883 -266.407)"/><path class="a" d="M1064.056,340.26a7.816,7.816,0,0,1,4.368,1.017c.335.2.389.343.129.666-.574.714-1.1,1.463-1.65,2.2-.166.221-.276.4-.629.153a3.015,3.015,0,0,0-4.828,2.385,3.141,3.141,0,0,0,2.663,3.6,2.429,2.429,0,0,0,2.027-.487c.349-.27.538-.241.793.134a22.407,22.407,0,0,0,1.585,2.083c.347.4.192.546-.166.749a7.438,7.438,0,0,1-6.48.488,6.06,6.06,0,0,1-4.123-4.494C1056.654,343.872,1059.995,340.233,1064.056,340.26Z" transform="translate(-1002.287 -266.541)"/><path class="a" d="M1033.89,343.126c0-3.145,0-6.29-.008-9.435,0-.355.06-.541.467-.533q1.515.029,3.033,0c.373-.007.439.157.439.487q-.013,9.47,0,18.94c0,.418-.1.612-.564.6-.943-.031-1.887-.027-2.83,0-.47.012-.546-.2-.544-.616C1033.9,349.417,1033.891,346.272,1033.89,343.126Z" transform="translate(-1001.411 -266.278)"/><path class="a" d="M1023.043,346.979c0-1.978.01-3.956-.009-5.933,0-.37.142-.483.469-.482,1.011,0,2.022.007,3.034,0,.315,0,.453.122.438.441s-.012.629-.009.944c0,.143-.1.337.12.4.2.055.269-.133.345-.254a4.032,4.032,0,0,1,4.061-1.832c.491.032.607.242.6.677-.021.786-.027,1.573,0,2.359.012.4-.121.485-.512.461a7.643,7.643,0,0,0-2.482.091,2.8,2.8,0,0,0-2.084,3c-.04,1.955-.06,3.912-.024,5.865.011.627-.185.768-.764.735-.852-.05-1.708-.039-2.562-.013-.451.013-.633-.087-.624-.6.032-1.955.013-3.911.013-5.866Z" transform="translate(-1001.009 -266.54)"/><path class="a" d="M1020.772,347.051c0,1.911-.02,3.822.013,5.732.009.547-.166.7-.692.674-.9-.039-1.8-.028-2.7,0-.406.013-.568-.114-.567-.532q.01-5.866-.008-11.734c0-.471.167-.627.638-.61.875.033,1.755.039,2.629-.006.536-.027.7.134.692.677-.031,1.933-.012,3.866-.012,5.8Z" transform="translate(-1000.779 -266.553)"/><path class="a" d="M1018.823,338.458a2.191,2.191,0,0,1-2.3-2.261,2.276,2.276,0,0,1,4.552.034A2.2,2.2,0,0,1,1018.823,338.458Z" transform="translate(-1000.768 -266.307)"/></g></g></svg>