<svg xmlns="http://www.w3.org/2000/svg" width="134.609" height="45.294" viewBox="0 0 134.609 45.294"><defs><style>.a{fill:#bababa;}</style></defs><g transform="translate(-1540.001 -931.003)"><g transform="translate(1540.001 931.003)"><path class="a" d="M1693.155,931.034c.026.115.1.152.215.173a10.178,10.178,0,0,1,8.456,7.592,10.6,10.6,0,1,1-20.6,4.94,10.642,10.642,0,0,1,7.489-12.325c.548-.156,1.128-.17,1.663-.38Zm-6.8,10.595a5.274,5.274,0,1,0,5.237-5.288A5.262,5.262,0,0,0,1686.352,941.629Z" transform="translate(-1643.68 -931.026)"/><path class="a" d="M1779.006,931.034c.422.124.848.234,1.264.375a7.571,7.571,0,0,1,4.759,9.1,6.4,6.4,0,0,1-2.31,3.323c-.263.2-.251.336-.106.6q2.048,3.663,4.073,7.339c.069.124.132.25.223.424-.161.011-.282.025-.4.026-1.764,0-3.528-.008-5.292.007a.562.562,0,0,1-.589-.371q-2.529-5.049-5.084-10.084c-.056-.11-.084-.243-.248-.327v.477c0,3.281-.006,6.562.008,9.843,0,.352-.076.469-.444.465q-2.472-.029-4.945,0c-.374,0-.448-.115-.447-.464q.014-10.1.007-20.206c0-.173-.007-.346-.012-.52Zm-3.891,7.021c0,.62.018,1.241-.007,1.861-.014.348.082.493.451.482.663-.02,1.327,0,1.99.006a1.283,1.283,0,0,0,.621-.148,2.345,2.345,0,0,0,1.084-2.605,2.392,2.392,0,0,0-2.366-1.937,11.282,11.282,0,0,1-1.3.01c-.427-.037-.5.143-.484.515C1775.135,936.843,1775.115,937.449,1775.115,938.055Z" transform="translate(-1708.704 -931.026)"/><path class="a" d="M1613.886,1042.737a10.412,10.412,0,0,0-1.71-.478,6.94,6.94,0,0,1-5.188-7.568c.017-.216.026-.433.026-.649q.008-6.093.005-12.186c0-.363.061-.493.464-.486,1.576.027,3.153.022,4.728,0,.351,0,.429.107.428.439-.01,4.337.006,8.673-.014,13.01a2.628,2.628,0,0,0,1.633,2.528,4.215,4.215,0,0,0,4.795-.867,2.311,2.311,0,0,0,.657-1.635c-.022-4.307,0-8.615-.023-12.923,0-.464.135-.562.572-.554,1.547.027,3.094.02,4.642,0,.323,0,.415.08.414.409-.011,4.683.015,9.367-.021,14.05a6.205,6.205,0,0,1-1.618,3.93,8.458,8.458,0,0,1-5.365,2.808,2.024,2.024,0,0,0-.781.164Z" transform="translate(-1589.231 -997.443)"/><path class="a" d="M1907.641,931.034c0,1.487-.02,2.974,0,4.46,0,.364-.1.457-.46.454-2-.016-3.99,0-5.986-.015-.385,0-.494.11-.481.49.029.823.021,1.647,0,2.471-.007.3.076.392.384.389,1.706-.015,3.412,0,5.118-.015.328,0,.412.089.406.411-.019,1.286-.024,2.573,0,3.859.007.376-.117.449-.464.445-1.706-.017-3.412,0-5.118-.017-.376,0-.457.116-.448.466q.036,1.321,0,2.644c-.009.332.094.414.414.411,2.067-.013,4.135,0,6.2-.014.373,0,.528.064.518.49-.032,1.257-.021,2.515,0,3.772,0,.3-.081.391-.386.39q-6.007-.014-12.014,0c-.342,0-.358-.146-.358-.411q.009-10.341.007-20.681Z" transform="translate(-1800.976 -931.026)"/><path class="a" d="M2008.06,1037.017a3.761,3.761,0,0,0-.209.868,5.571,5.571,0,0,1-3.761,3.938,10.714,10.714,0,0,1-10.288-1.654c-.286-.208-.35-.359-.132-.684q1-1.49,1.925-3.032c.173-.288.28-.252.5-.083a8.756,8.756,0,0,0,3.369,1.712,2.705,2.705,0,0,0,3.174-1.338,1.215,1.215,0,0,0-.21-1.679,2.775,2.775,0,0,0-.872-.554c-1.453-.6-2.9-1.228-4.359-1.8a3.909,3.909,0,0,1-2.548-3.281,7.459,7.459,0,0,1,.523-4.531,6.337,6.337,0,0,1,4.7-3.323,9.24,9.24,0,0,1,6.289.974c.259.128.512.265.765.406.521.29.518.291.246.792-.515.951-1.042,1.9-1.535,2.859-.172.335-.309.422-.626.162a5.426,5.426,0,0,0-3.062-1.172,1.963,1.963,0,0,0-2.121,1.859,1.362,1.362,0,0,0,.719,1.208,15.043,15.043,0,0,0,2.5,1.068,20,20,0,0,1,2.4.987,4.534,4.534,0,0,1,2.516,3.516c.014.091-.032.21.094.264Z" transform="translate(-1873.451 -997.449)"/><path class="a" d="M1554.762,931.011c-.613,1.041-1.372,1.982-2.034,2.989-.543.826-1.1,1.652-1.677,2.445-.849,1.159-1.656,2.347-2.486,3.518-1.753,2.474-3.476,4.969-5.214,7.453-.618.884-1.245,1.76-1.864,2.643-.442.63-.877,1.264-1.319,1.894a.878.878,0,0,1-.158.138q0-10.367-.008-20.734c0-.3.058-.356.355-.355Q1547.559,931.021,1554.762,931.011Z" transform="translate(-1540.001 -931.003)"/><path class="a" d="M1550.321,952.85l2.494-3.322q6.451-8.593,12.9-17.19a.786.786,0,0,1,.713-.366q2.516.031,5.032,0c.372,0,.49.079.485.47-.022,1.821-.01,3.642-.008,5.464a1.187,1.187,0,0,0,.055.562c.187-.061.234-.245.321-.379q1.86-2.87,3.7-5.752a.671.671,0,0,1,.653-.365q2.8.026,5.6,0c.328,0,.405.088.4.408q-.014,10.06,0,20.121c0,.32-.073.415-.4.41-1.3-.021-2.6-.008-3.9-.008-.7,0-.7,0-.7-.684q0-4.553,0-9.107c0-.795.009-1.59.01-2.385,0-.186-.015-.371-.03-.683L1566.8,952.9V940.162l-.094-.04c-.324.426-.651.849-.971,1.278q-4.211,5.616-8.418,11.235a.513.513,0,0,1-.445.275c-2.14-.009-4.28-.007-6.42-.009A.626.626,0,0,1,1550.321,952.85Z" transform="translate(-1547.589 -931.716)"/><path class="a" d="M1785.678,1031.911c0-3.354.007-6.709-.01-10.063,0-.393.112-.475.484-.473,2.791.015,5.583.047,8.374,0a8.885,8.885,0,0,1,8.211,5.5,14.919,14.919,0,0,1,.905,6.678,11.06,11.06,0,0,1-1.271,4.728,7.968,7.968,0,0,1-6.161,4.131,12.7,12.7,0,0,1-1.861.073c-2.734,0-5.467-.007-8.2.01-.375,0-.483-.084-.481-.472C1785.685,1038.648,1785.678,1035.28,1785.678,1031.911Zm5.346-.014c0,1.836.005,3.672-.006,5.507,0,.27.061.371.351.395a8.3,8.3,0,0,0,1.6-.022,5.059,5.059,0,0,0,4.462-2.948,7.358,7.358,0,0,0,.493-3.782,5.161,5.161,0,0,0-1.823-3.749,6.714,6.714,0,0,0-4.78-1.273c-.288.015-.3.182-.3.407C1791.027,1028.254,1791.024,1030.075,1791.024,1031.9Z" transform="translate(-1720.62 -997.444)"/><path class="a" d="M1552.837,1031.607a5.477,5.477,0,0,1,2.49,1.847,5.865,5.865,0,0,1,.466,6.011,6.113,6.113,0,0,1-3.814,3.37,1.347,1.347,0,0,1-.468.065c-3.528,0-7.056,0-10.585.009-.335,0-.4-.1-.4-.417q.012-10.083,0-20.165c0-.352.107-.4.449-.4,2.732.034,5.465.043,8.2.047a5.611,5.611,0,0,1,5.1,7.9,5.086,5.086,0,0,1-.608.944A6.161,6.161,0,0,1,1552.837,1031.607Zm-6.821,4.818c0,.593.013,1.185-.006,1.777-.01.284.083.372.365.367.983-.015,1.966-.012,2.949,0a1.056,1.056,0,0,0,.662-.277c1.13-.853.805-3.075.068-3.734a1.061,1.061,0,0,0-.709-.286c-1.011-.009-2.023-.006-3.035-.014-.218,0-.3.078-.3.306C1546.024,1035.181,1546.016,1035.8,1546.015,1036.424Zm0-7.895c0,.434.012.868,0,1.3-.009.248.08.325.324.32.65-.013,1.3,0,1.952,0a1.123,1.123,0,0,0,1.182-.815,2.411,2.411,0,0,0-.16-1.931.921.921,0,0,0-.882-.521c-.694-.005-1.389.01-2.082-.009-.284-.008-.341.107-.332.358C1546.028,1027.662,1546.016,1028.1,1546.016,1028.529Z" transform="translate(-1540.383 -997.854)"/><path class="a" d="M1941.234,1042.471c-2.012,0-3.935-.005-5.857.007-.255,0-.31-.16-.393-.324q-2.11-4.192-4.221-8.385a22.213,22.213,0,0,0-1.1-1.978v.577c0,3.224,0,6.447.007,9.67,0,.321-.053.446-.414.441-1.677-.021-3.355-.015-5.032,0-.277,0-.37-.064-.37-.358q.012-10.191,0-20.382c0-.295.1-.358.372-.357,2.82.009,5.642-.067,8.458.027a6.906,6.906,0,0,1,5.881,3.66,6.809,6.809,0,0,1-1.6,9.123c-.211.161-.169.277-.066.461q1.615,2.891,3.219,5.788C1940.481,1041.093,1940.838,1041.749,1941.234,1042.471Zm-11.74-14.109c0,.664.012,1.328-.006,1.992-.007.27.082.346.344.338.374-.012.75.04,1.124.026a3.45,3.45,0,0,0,1.575-.147,2.117,2.117,0,0,0,1.094-1.756,2.409,2.409,0,0,0-1.948-2.74,16.476,16.476,0,0,0-1.986,0c-.237,0-.2.16-.2.3C1929.492,1027.035,1929.493,1027.7,1929.493,1028.363Z" transform="translate(-1822.219 -997.436)"/><path class="a" d="M1863.5,1031.724c0-3.34.005-6.679-.007-10.019,0-.332.08-.446.423-.445q5.944.014,11.888,0c.254,0,.385.04.38.354q-.029,2.06,0,4.12c0,.323-.116.37-.4.369-2.024-.011-4.049,0-6.074-.014-.34,0-.452.087-.441.434q.038,1.235.006,2.472c-.009.354.088.471.457.467,1.663-.019,3.326,0,4.989-.016.353,0,.476.083.47.451q-.03,1.908,0,3.817c.006.369-.116.452-.468.448-1.735-.018-3.471,0-5.206-.015-.3,0-.4.068-.391.38q.031,1.365,0,2.732c-.007.311.092.383.39.381,2.1-.012,4.194,0,6.291-.015.369,0,.457.106.451.461-.021,1.272-.017,2.544,0,3.816,0,.281-.066.365-.362.364-3.934-.008-7.867,0-11.8,0-.589,0-.589-.011-.59-.614Q1863.5,1036.69,1863.5,1031.724Z" transform="translate(-1777.835 -997.362)"/><path class="a" d="M1943.979,952.234l3.966-5.3c1.238-1.654,2.468-3.314,3.721-4.956a.527.527,0,0,0,.021-.738q-3.128-4.707-6.225-9.434c-.1-.153-.193-.311-.295-.476a.928.928,0,0,1,.489-.058c1.706,0,3.413.008,5.119-.01a.732.732,0,0,1,.7.373c1.18,1.764,2.378,3.516,3.571,5.271.063.093.135.18.224.3l2.925-3.854c.463-.61.926-1.22,1.385-1.833a.487.487,0,0,1,.418-.252c1.837.009,3.673.008,5.51.012a.717.717,0,0,1,.16.055c-.528.715-1.037,1.408-1.551,2.1q-6.8,9.145-13.6,18.3a1.113,1.113,0,0,1-1.031.519c-1.634-.03-3.269-.011-4.9-.01Z" transform="translate(-1837.013 -931.193)"/><path class="a" d="M1994.924,931.843c.011.155.03.311.031.466q.04,9.928.078,19.856c0,.6,0,.6-.613.6h-14.747a2.5,2.5,0,0,1-.26,0c-.1-.01-.23.029-.276-.069-.054-.118.063-.2.13-.292.991-1.376,2.032-2.716,3.051-4.07q1.281-1.7,2.582-3.395c.54-.7,1.044-1.444,1.589-2.139.86-1.1,1.685-2.218,2.531-3.322.557-.727,1.114-1.455,1.64-2.207.334-.476.718-.932,1.079-1.4.553-.71,1.091-1.432,1.635-2.15l1.457-1.923Z" transform="translate(-1862.852 -931.592)"/><path class="a" d="M1731.367,1031.942c0-3.369.006-6.738-.009-10.106,0-.363.094-.457.454-.453q2.451.03,4.9,0c.387-.005.5.087.5.493-.015,5,0,10.005-.02,15.008,0,.411.122.493.5.49,1.981-.018,3.963,0,5.944-.018.372,0,.453.107.448.461-.02,1.431-.016,2.863,0,4.294,0,.3-.089.385-.39.384q-5.966-.014-11.932,0c-.373,0-.41-.138-.409-.448Q1731.376,1036.995,1731.367,1031.942Z" transform="translate(-1680.69 -997.452)"/><path class="a" d="M1839.893,941.812c0-3.367.006-6.734-.009-10.1,0-.362.093-.459.454-.454q2.32.031,4.64,0c.35,0,.427.1.427.436q-.014,7.413,0,14.826c0,.724-.094.624.614.626,2.01.005,4.019.012,6.028-.008.369,0,.451.1.446.458-.021,1.459-.015,2.919,0,4.378,0,.281-.042.4-.368.4q-5.941-.016-11.882,0c-.356,0-.347-.167-.346-.421Q1839.9,946.884,1839.893,941.812Z" transform="translate(-1760.481 -931.189)"/><path class="a" d="M1696.725,1031.94c0,3.366-.005,6.733.008,10.1,0,.348-.068.466-.443.461-1.618-.023-3.238-.018-4.856,0-.308,0-.384-.091-.384-.388q.012-10.163,0-20.328c0-.292.063-.4.378-.4q2.449.023,4.9,0c.329,0,.406.093.4.413C1696.72,1025.178,1696.725,1028.559,1696.725,1031.94Z" transform="translate(-1651.055 -997.453)"/></g></g></svg>