<svg xmlns="http://www.w3.org/2000/svg" width="128.935" height="5" viewBox="0 0 128.935 5"><defs><style>.a{fill:#40b4e5;}</style></defs><g transform="translate(-159.065 -1922.381)"><path class="a" d="M464.05,1924.812a5.631,5.631,0,0,1-3.482-.121A3.5,3.5,0,0,1,464.05,1924.812Z" transform="translate(-244.754 -1.455)"/><path class="a" d="M558.711,1922.381h3.821c0,.031,0,.062,0,.093h-3.822Z" transform="translate(-324.462 0)"/><g transform="translate(159.065 1923.384)"><path class="a" d="M229.973,1927.769c-12.122,1.376-24.192,2.01-36.285,2.519-9.2.387-18.429.248-27.615.9-1.649.117-3.325-.135-4.989.09a3.056,3.056,0,0,1-1.262-.181c-.517-.166-.844-.5-.735-.979a.9.9,0,0,1,.846-.694c.519-.062,1.045-.086,1.57-.115,8.764-.478,17.543-.359,26.319-.41,8.866-.051,17.705-.541,26.55-.994,3.473-.178,6.944-.3,10.413-.567A31.792,31.792,0,0,1,229.973,1927.769Z" transform="translate(-159.065 -1927.297)"/><path class="a" d="M547.314,1930.435c-3.052-.836-5.878-.345-8.648-.691-5.277-.66-10.529-1.469-15.871-1.789-6.115-.366-12.229-.807-18.362-.819-6.66-.013-13.322-.26-19.982.028a3.1,3.1,0,0,1-2.025-.449c1.755,0,3.026-.047,4.29.008,6.662.292,13.318-.225,19.984-.026,5.691.17,11.391.106,17.068.59,3.309.282,6.633.458,9.95.682a9.2,9.2,0,0,0,3.133-.164c2.767-.8,5.348.081,7.985.456.389.055,1,.14.886.588C545.477,1929.8,546.8,1929.6,547.314,1930.435Z" transform="translate(-440.451 -1926.65)"/><path class="a" d="M788.073,1939.8a1.56,1.56,0,0,1,1.385.052A1.515,1.515,0,0,1,788.073,1939.8Z" transform="translate(-671.431 -1937.548)"/><path class="a" d="M779.906,1943.756c-.1.091-.187.248-.289.252-.122.005-.252-.12-.38-.19.1-.088.186-.242.288-.247C779.647,1943.567,779.778,1943.689,779.906,1943.756Z" transform="translate(-664.671 -1940.844)"/><path class="a" d="M838.5,1949.508c-.139.006-.316.057-.407.008-.151-.082-.109-.215.062-.283a.41.41,0,0,1,.225-.006C838.582,1949.275,838.619,1949.376,838.5,1949.508Z" transform="translate(-709.634 -1945.54)"/></g><path class="a" d="M660.7,1925.336c.151.029.362.021.438.1.1.1-.044.2-.266.175-.154-.015-.365-.013-.44-.087C660.34,1925.428,660.484,1925.333,660.7,1925.336Z" transform="translate(-406.578 -2.261)"/></g></svg>