<svg xmlns="http://www.w3.org/2000/svg" width="236" height="21.788" viewBox="0 0 236 21.788"><defs><style>.a{fill:#fff;}</style></defs><g transform="translate(-159.169 -852.437)"><path class="a" d="M173.134,862.942A4.9,4.9,0,0,0,175.9,858.4v-.057a4.827,4.827,0,0,0-1.446-3.583,7.61,7.61,0,0,0-5.507-1.865h-9.781v21.066h10.022c4.755,0,7.884-1.926,7.884-5.778v-.059c0-2.83-1.5-4.246-3.941-5.177m-9.451-5.99h4.574c1.956,0,3.039.783,3.039,2.167v.059c0,1.567-1.293,2.229-3.34,2.229h-4.274Zm8.788,10.654c0,1.564-1.234,2.288-3.28,2.288h-5.508v-4.635h5.357c2.377,0,3.431.872,3.431,2.286Z" transform="translate(0 -0.093)"/><path class="a" d="M204.116,866.433a6.542,6.542,0,0,0,4.514-6.532v-.06a6.611,6.611,0,0,0-1.806-4.815,8.387,8.387,0,0,0-6.14-2.138h-9.631v21.068h4.635v-6.741h3.641l4.514,6.741h5.418Zm-.18-6.291c0,1.776-1.293,2.981-3.551,2.981h-4.695v-6.049h4.6c2.259,0,3.643,1.022,3.643,3.008Z" transform="translate(-6.543 -0.093)"/><path class="a" d="M271.584,865.861l-9.872-12.97h-4.273v21.066h4.574V860.565l10.2,13.391h3.941V852.891h-4.574Z" transform="translate(-20.165 -0.093)"/><path class="a" d="M300.117,852.89H291.9v21.066h8.216c6.621,0,11.195-4.605,11.195-10.533v-.06c0-5.93-4.574-10.473-11.195-10.473m6.35,10.594a6,6,0,0,1-6.35,6.29h-3.581v-12.7h3.581a6.05,6.05,0,0,1,6.35,6.35Z" transform="translate(-27.237 -0.093)"/><path class="a" d="M373.1,867.589c0-3.672-2.408-5.207-6.682-6.319-3.64-.934-4.544-1.385-4.544-2.769v-.061c0-1.024.933-1.835,2.709-1.835a9.874,9.874,0,0,1,5.478,2.077l2.407-3.492a12.2,12.2,0,0,0-7.825-2.678c-4.3,0-7.374,2.527-7.374,6.35v.061c0,4.183,2.739,5.357,6.983,6.441,3.522.9,4.243,1.5,4.243,2.678v.061c0,1.232-1.143,1.985-3.039,1.985a9.662,9.662,0,0,1-6.291-2.559l-2.739,3.281a13.407,13.407,0,0,0,8.938,3.372c4.546,0,7.736-2.347,7.736-6.532Z" transform="translate(-40.478 -0.015)"/><path class="a" d="M384.567,857.163h6.411v16.795h4.633V857.163h6.411V852.89H384.567Z" transform="translate(-46.252 -0.093)"/><rect class="a" width="4.635" height="21.066" transform="translate(363.146 852.798)"/><path class="a" d="M451.081,870.463l-2.949-2.98c-1.655,1.5-3.13,2.468-5.539,2.468-3.611,0-6.108-3.01-6.108-6.621v-.061c0-3.611,2.558-6.561,6.108-6.561a7.776,7.776,0,0,1,5.389,2.379l2.949-3.4a10.868,10.868,0,0,0-8.306-3.249A10.705,10.705,0,0,0,431.64,863.33v.06a10.633,10.633,0,0,0,10.8,10.835,10.768,10.768,0,0,0,8.638-3.762" transform="translate(-55.912)"/><path class="a" d="M229.735,852.7l-9.029,21.218H225.3l4.96-11.883.009.006,1.546-3.772,2.8,6.83h-3.041l-1.709,4.093h6.405l1.926,4.726h4.847L234.008,852.7Z" transform="translate(-12.628 -0.054)"/><path class="a" d="M335.2,852.7h-4.273l-9.029,21.218h4.591l4.96-11.883.009.006L333,858.268l2.8,6.83h-3.041l-1.709,4.093h6.407l1.926,4.726h4.845Z" transform="translate(-33.391 -0.054)"/></g></svg>