<svg xmlns="http://www.w3.org/2000/svg" width="100" height="100" viewBox="0 0 100 100"><defs><style>.a{fill:#40b4e5;}.b{fill:#f6f5f2;stroke:#f5f3f0;stroke-width:0.3px;}</style></defs><g transform="translate(-910 -2036)"><circle class="a" cx="50" cy="50" r="50" transform="translate(910 2036)"/><g transform="translate(921.378 2047.207)"><path class="b" d="M108.505,1669.3l.072-.752,7.118.684-.073.752Z" transform="translate(-108.505 -1633.766)"/><path class="b" d="M115.9,1650.154l.23-.688,2.588.863a3.942,3.942,0,0,1,.032,2.779,3.64,3.64,0,1,1-6.9-2.312,3.521,3.521,0,0,1,1.82-2.193l.307.6a3.02,3.02,0,1,0,4.141,3.665,3.1,3.1,0,0,0,.068-1.948Z" transform="translate(-109.947 -1624.547)"/><path class="b" d="M122.174,1629.42l5.791,4.193-.366.505-7.395.32,4.7,3.4-.443.613-5.79-4.194.365-.5,7.4-.328-4.7-3.4Z" transform="translate(-113.202 -1615.681)"/><path class="b" d="M132.681,1621.631l.572-.495,4.682,5.412-.572.495Z" transform="translate(-119.678 -1611.853)"/><path class="b" d="M142.51,1613.022l-2.183,1.245L140,1613.7l5.021-2.866.324.568-2.183,1.246,3.221,5.642-.657.375Z" transform="translate(-123.063 -1607.091)"/><path class="b" d="M163.962,1611.5l.172.631-4.879,1.329-1.878-6.9,4.731-1.288.172.631-4,1.089.669,2.454,3.568-.971.169.621-3.569.971.7,2.563Z" transform="translate(-131.092 -1604.519)"/><path class="b" d="M187.154,1609l-.331,2.451-.74-.1.331-2.451-2.207-5.022.8.108,1.892,4.309,2.969-3.651.75.1Z" transform="translate(-143.492 -1603.875)"/><path class="b" d="M200.087,1611.511a3.757,3.757,0,1,1,1.979,4.844A3.6,3.6,0,0,1,200.087,1611.511Zm6.184,2.718a3,3,0,1,0-3.934,1.508A2.9,2.9,0,0,0,206.271,1614.229Z" transform="translate(-150.681 -1606.4)"/><path class="b" d="M218.268,1621.574l2.715-3.071.567.5-2.7,3.047c-1.124,1.271-1.041,2.381,0,3.3s2.161.874,3.285-.4l2.695-3.047.551.487-2.715,3.071c-1.361,1.539-2.892,1.6-4.262.392S216.907,1623.113,218.268,1621.574Z" transform="translate(-158.791 -1610.636)"/><path class="b" d="M230.615,1642.158l1.092-2.6a5.093,5.093,0,0,1-.328-.47l-1.012-1.633-1.928,1.195-.4-.643,6.077-3.769,1.411,2.275c.958,1.546.758,2.968-.544,3.775a2.218,2.218,0,0,1-2.772-.2l-1.163,2.777Zm3.972-2.511c.972-.6,1.129-1.59.376-2.806l-1-1.615-3.048,1.889,1,1.615C232.67,1639.947,233.632,1640.239,234.587,1639.647Z" transform="translate(-163.75 -1617.908)"/><path class="b" d="M243.6,1668.067c-1.51.2-2.565-.779-2.8-2.583l-.248-1.905-2.24.292-.1-.75,7.095-.925.346,2.655C245.888,1666.655,245.118,1667.869,243.6,1668.067Zm-.1-.75c1.135-.148,1.686-.983,1.5-2.4l-.246-1.885-3.548.463.246,1.885C241.639,1666.8,242.385,1667.463,243.5,1667.317Z" transform="translate(-168.451 -1630.829)"/><path class="b" d="M242.534,1680.27a3.757,3.757,0,1,1-4.213,3.1A3.6,3.6,0,0,1,242.534,1680.27Zm-1.122,6.661a3.005,3.005,0,1,0-2.425-3.446A2.9,2.9,0,0,0,241.412,1686.931Z" transform="translate(-168.473 -1639.156)"/><path class="b" d="M239.531,1703.623l1.08-2.271.591.281-2.485,5.226-.591-.281,1.08-2.271-5.872-2.792.324-.684Z" transform="translate(-166.197 -1648.684)"/><path class="b" d="M222.857,1714.964l-.5-.418,3.238-3.888,5.5,4.579-3.14,3.77-.5-.419,2.655-3.189-1.955-1.629-2.368,2.844-.495-.413,2.368-2.843-2.042-1.7Z" transform="translate(-161.122 -1653.226)"/><path class="b" d="M212.481,1731.371l-3.975-5.946.517-.346,7.048,2.269-3.225-4.825.628-.42,3.975,5.946-.517.346-7.057-2.263,3.225,4.825Z" transform="translate(-154.722 -1658.516)"/><path class="b" d="M200.429,1738.177l2.391-.78.2.622-5.5,1.793-.2-.622,2.39-.779-2.015-6.18.719-.234Z" transform="translate(-149.552 -1663.088)"/><path class="b" d="M188.387,1741.7l-.75.09-.85-7.1.75-.09Z" transform="translate(-144.683 -1664.291)"/><path class="b" d="M169.453,1736.243l3.965.381,1.036-1.819.783.075-3.937,6.805-.743-.071-2.57-7.43.793.076Zm.216.636,1.341,3.988,2.076-3.66Z" transform="translate(-135.996 -1664.099)"/><path class="b" d="M156.474,1737.856l-.708-.265,2.276-6.086-3.751-1.4.229-.613,4.459,1.667Z" transform="translate(-129.666 -1661.93)"/><path class="b" d="M143,1734.453a1.734,1.734,0,1,1,.383,2.411A1.69,1.69,0,0,1,143,1734.453Zm.151.11a1.509,1.509,0,0,0,.339,2.155,1.552,1.552,0,1,0-.339-2.155Zm1.075.418.043-.844.215.156-.045.787a.8.8,0,0,1,.094.062l.413.3.387-.532.207.15-1.168,1.6-.62-.451a.678.678,0,0,1-.248-.995A.621.621,0,0,1,144.225,1734.981Zm-.519.387c-.165.227-.1.476.184.681l.4.295.526-.723-.405-.295C144.135,1735.122,143.874,1735.138,143.706,1735.369Z" transform="translate(-124.288 -1663.887)"/></g></g></svg>