<svg xmlns="http://www.w3.org/2000/svg" width="259.39" height="270" viewBox="0 0 259.39 270"><defs><style>.a{fill:#40b4e5;}</style></defs><g transform="translate(645.566 -208.091) rotate(90)"><g transform="translate(208.091 386.176)"><path class="a" d="M270.677,411.668l17.471-17.508,3.727,3.72-17.471,17.5Z" transform="translate(-59.586 -367.23)"/><path class="a" d="M281.161,402.051c6.614-4.189,13.99-1.835,17.886,4.307a11.558,11.558,0,0,1,.793,11.575l-4.331-2.395a7.112,7.112,0,0,0-.412-6.678c-2.425-3.825-7.086-4.736-11.036-2.233s-5.117,7.11-2.692,10.935a8.242,8.242,0,0,0,4.4,3.406l2.506-1.592-3.494-5.518,3.885-2.459,6.317,9.963-8.024,5.086a13.668,13.668,0,0,1-9.538-6.388C273.525,413.92,274.577,406.227,281.161,402.051Z" transform="translate(-48.963 -353.518)"/><path class="a" d="M283.3,432.238l12.432-15.65-15.562,4.277-1.393-5.079,23.856-6.557,1.437,5.221-11.95,15.171,14.985-4.118,1.4,5.08-23.856,6.557Z" transform="translate(-40.364 -331.474)"/><path class="a" d="M280.745,421.534l24.716-1.1.236,5.262-24.719,1.1Z" transform="translate(-35.697 -304.887)"/><path class="a" d="M281.119,430.163l19.859,3.1,1.113-7.147,4.58.715-3.039,19.495-4.58-.712,1.11-7.113L280.3,435.4Z" transform="translate(-36.755 -291.414)"/><path class="a" d="M284.011,433.6l22.726,9.747-6.9,16.085-4.26-1.828,4.827-11.242-4.772-2.051-4.719,11.005-4.26-1.825,4.719-11.005-5.177-2.223-4.823,11.245-4.26-1.828Z" transform="translate(-44.322 -273.637)"/><path class="a" d="M273.9,446.153l6.985,7.336,16.955,4.034-4.354,4.145-11.258-2.951,2.395,11.393-4.324,4.118-3.228-17.11-6.985-7.332Z" transform="translate(-60.996 -243.861)"/><path class="a" d="M285.678,458.266c3.474,6.6,1.14,13.869-5.494,17.363-6.6,3.477-13.916,1.288-17.39-5.312s-1.14-13.869,5.461-17.343C274.885,449.48,282.2,451.666,285.678,458.266Zm-18.092,9.528c2.162,4.1,6.381,5.825,10.419,3.7,4.071-2.142,5.039-6.594,2.88-10.7-2.145-4.074-6.381-5.828-10.452-3.683C266.392,459.238,265.441,463.724,267.586,467.795Z" transform="translate(-82.098 -231.592)"/><path class="a" d="M273.435,463.4l2.654,14.594-5.255.954L268.207,464.5c-.617-3.393-3.015-5.37-6.773-4.685s-5.265,3.37-4.648,6.763l2.627,14.449-5.292.965-2.654-14.6c-1.1-6.02,1.723-10.83,9.13-12.176S272.339,457.372,273.435,463.4Z" transform="translate(-105.708 -223.045)"/><path class="a" d="M248.845,455.8l3.943,9.238,3.838.391.89-8.746,5.238.533-2.5,24.611-11.515-1.174c-5.13-.52-7.96-4.2-7.494-8.776a7.158,7.158,0,0,1,6.169-6.756l-4.621-9.936Zm-2.219,16.665c-.206,2.027,1.251,3.444,3.319,3.656l5.535.563.678-6.644-5.535-.563A3.356,3.356,0,0,0,246.626,472.462Z" transform="translate(-129.546 -222.434)"/><path class="a" d="M253.227,454.605l-12.22,21.522-10.068-5.714c-4.678-2.658-5.434-7.265-3.289-11.043,2.125-3.744,6.5-5.44,11.147-2.8l5.488,3.117,4.358-7.68Zm-20.9,7.423c-1.025,1.808-.263,3.69,1.545,4.719l4.84,2.745L242,463.719l-4.84-2.749C235.348,459.941,233.337,460.252,232.329,462.029Z" transform="translate(-164.39 -229.975)"/><path class="a" d="M240.279,466.765c-5.349,5.194-12.975,5-18.2-.374-5.191-5.349-5.16-12.979.189-18.169s12.975-5.005,18.173.344C245.658,453.942,245.628,461.574,240.279,466.765ZM226.042,452.1c-3.326,3.231-3.784,7.761-.607,11.032,3.2,3.3,7.747,2.972,11.073-.256,3.3-3.2,3.784-7.761.58-11.059C233.911,448.548,229.344,448.9,226.042,452.1Z" transform="translate(-184.047 -247.932)"/><path class="a" d="M239.357,442.6l-17.657,9.65,3.471,6.354-4.071,2.226-9.474-17.329,4.071-2.226,3.457,6.321,17.657-9.653Z" transform="translate(-199.703 -263.332)"/><path class="a" d="M237.017,445.424,213.023,451.5l-4.3-16.979,4.5-1.14,3.005,11.872,5.036-1.275-2.941-11.623,4.5-1.133,2.941,11.616,5.471-1.383-3.008-11.872,4.5-1.14Z" transform="translate(-206.591 -285.878)"/><path class="a" d="M233.242,424.426l-16.419,11.42,16.142.381-.125,5.268-24.75-.583.128-5.413,15.818-11.1-15.549-.371.125-5.265,24.75.583Z" transform="translate(-208.091 -308.852)"/><path class="a" d="M234.822,427.693,215.6,421.808l-2.118,6.914-4.432-1.356,5.774-18.864,4.435,1.356-2.108,6.877,19.218,5.885Z" transform="translate(-205.806 -333.199)"/><path class="a" d="M234.367,419.693l-21.731-11.839,2.519-4.628,21.731,11.842Z" transform="translate(-197.307 -345.716)"/><path class="a" d="M242.652,409.583l-4.192-1.565-6.945,8.021,2.148,3.923-3.912,4.516-12.463-23.411,4.321-4.992,24.952,8.992Zm-19.222-7.562,5.525,9.889,5.052-5.835Z" transform="translate(-186.268 -362.686)"/><path class="a" d="M237.754,413.755l-14-20.389,4.371-3,11.38,16.567,8.621-5.919,2.624,3.818Z" transform="translate(-170.935 -376.237)"/><path class="a" d="M241.511,401.23a7.864,7.864,0,1,1,3.97-10.388A7.868,7.868,0,0,1,241.511,401.23Zm-5.933-13.275a6.676,6.676,0,1,0,8.82,3.373A6.627,6.627,0,0,0,235.578,387.954Zm6.533,9.349-3.585-2.3-1.423.634,1.454,3.251-1.15.516-3.68-8.23,3.353-1.5a2.8,2.8,0,0,1,3.794,1.312,2.627,2.627,0,0,1-1.008,3.373l3.67,2.3Zm-4.577-6.607-2.2.985,1.3,2.911,2.2-.985a1.595,1.595,0,1,0-1.3-2.911Z" transform="translate(-155.083 -386.176)"/></g></g></svg>