<svg xmlns="http://www.w3.org/2000/svg" width="28.688" height="57.658" viewBox="0 0 28.688 57.658"><defs><style>.a{fill:#40b4e5;}</style></defs><g transform="translate(-137.489 -596.267)"><path class="a" d="M159.268,613.4a1.066,1.066,0,0,0,.749-1.824,5.9,5.9,0,0,0-8.329,0,1.066,1.066,0,0,0,1.5,1.517,3.771,3.771,0,0,1,5.335,0A1.061,1.061,0,0,0,159.268,613.4Z" transform="translate(-4.02 -3.936)"/><path class="a" d="M161.292,608.019a1.066,1.066,0,0,0,.751-1.822,10.739,10.739,0,0,0-15.166,0,1.066,1.066,0,0,0,1.5,1.513,8.608,8.608,0,0,1,12.163,0A1.063,1.063,0,0,0,161.292,608.019Z" transform="translate(-2.627 -1.968)"/><path class="a" d="M143.573,602.323a13.449,13.449,0,0,1,18.99,0,1.065,1.065,0,0,0,1.507-1.507,15.579,15.579,0,0,0-22,0,1.065,1.065,0,0,0,1.507,1.507Z" transform="translate(-1.235)"/><path class="a" d="M156.662,620.054h-1.208a1.066,1.066,0,1,0,0,2.131h1.208a7.392,7.392,0,0,1,7.384,7.384v16.9a12.212,12.212,0,1,1-24.425,0v-16.9A7.392,7.392,0,0,1,147,622.185h1.207a1.066,1.066,0,1,0,0-2.131H147a9.527,9.527,0,0,0-9.516,9.515v16.9a14.344,14.344,0,1,0,28.688,0v-16.9A9.527,9.527,0,0,0,156.662,620.054Z" transform="translate(0 -6.888)"/><path class="a" d="M156.261,618.354a1.066,1.066,0,0,0-1.066,1.066V628.2a3.473,3.473,0,0,0-2.415,3.3v4.828a3.48,3.48,0,1,0,6.959,0v-4.828a3.473,3.473,0,0,0-2.413-3.3V619.42A1.066,1.066,0,0,0,156.261,618.354Zm1.348,17.966a1.348,1.348,0,0,1-2.7,0v-4.828a1.348,1.348,0,1,1,2.7,0Z" transform="translate(-4.428 -6.396)"/></g></svg>