<svg xmlns="http://www.w3.org/2000/svg" width="58.959" height="57.599" viewBox="0 0 58.959 57.599"><defs><style>.a{fill:#40b4e5;}</style></defs><g transform="translate(0 0)"><path class="a" d="M958.6,364.832V340.224a1.169,1.169,0,0,0-1.17-1.168h-9.35a1.168,1.168,0,0,0-1.168,1.168v29.488a15.946,15.946,0,0,0-3.166,4.74V351.634a1.169,1.169,0,0,0-1.168-1.17h-9.351a1.169,1.169,0,0,0-1.17,1.17v33.789h-3.165V362.105a1.17,1.17,0,0,0-1.17-1.17h-9.349a1.171,1.171,0,0,0-1.17,1.17v23.318h-.712a1.169,1.169,0,1,0,0,2.338H944.1a15.907,15.907,0,1,0,14.5-22.929Zm-2.339-23.438v23.582a15.812,15.812,0,0,0-7.01,2.733V341.394ZM934.394,352.8h7.013v32.62h-7.013Zm-14.852,10.472h7.01v22.148h-7.01Zm38.821,31.041a13.579,13.579,0,1,1,13.58-13.578A13.595,13.595,0,0,1,958.363,394.316Z" transform="translate(-915.322 -339.056)"/><path class="a" d="M951.455,360.758l0-.006a1.183,1.183,0,0,0-.253-.379c-.024-.023-.055-.033-.08-.054a1.638,1.638,0,0,0-.738-.286l-.008,0H939.912a1.17,1.17,0,0,0,0,2.339h7.39c-1.365,1.357-3.379,3.455-6.438,6.687-1.579,1.668-2.942,3.111-3.443,3.587a1.169,1.169,0,0,0,1.612,1.694c.544-.518,1.863-1.91,3.53-3.673,1.829-1.933,4.755-5.026,6.64-6.887v7.881a1.17,1.17,0,0,0,2.339,0V361.2A1.17,1.17,0,0,0,951.455,360.758Z" transform="translate(-901.746 -325.955)"/></g></svg>