<svg xmlns="http://www.w3.org/2000/svg" width="42.628" height="53.895" viewBox="0 0 42.628 53.895"><defs><style>.a{fill:#40b4e5;}</style></defs><path class="a" d="M378.365,351.886a4.11,4.11,0,0,0-2.492.837,4.131,4.131,0,0,0-6.636-1.616,4.13,4.13,0,0,0-5.9-1.473l-.02-6a4.125,4.125,0,1,0-8.249,0l.027,8.108c-.008.11-.013.214-.013.323l.1,10.777v5.018l-3.266-1.834-.045-.024a11.285,11.285,0,0,0-5.446-1.268c-.033,0-.066,0-.1,0-.264.028-6.452.719-6.452,4.883v.507a1.031,1.031,0,0,0,.008.126,3.891,3.891,0,0,0,4.013,3.311h1.688c3.32-.147,8.024,5.942,9.861,8.742a.958.958,0,0,0-.018.186v8.43a2.48,2.48,0,0,0,2.477,2.477h22.068a2.48,2.48,0,0,0,2.477-2.477V382.5l.055-19.192v-7.291A4.137,4.137,0,0,0,378.365,351.886Zm-32.849,19.782h-1.595a1.986,1.986,0,0,1-2.147-1.6v-.438c0-2.293,4.237-2.922,4.7-2.983A9.264,9.264,0,0,1,351,367.706l4.663,2.617a.952.952,0,0,0,1.418-.83v-6.654l-.1-10.777c0-.059,0-.123.01-.194,0-.029,0-.058,0-.086l-.027-8.145a2.22,2.22,0,1,1,4.44,0l.028,8.3v.035c0,.03,0,.059,0,.093l.049,11.247a.952.952,0,0,0,.952.948h0a.952.952,0,0,0,.949-.953l-.015-10.224a2.229,2.229,0,1,1,4.457,0l.034,10.226a.952.952,0,0,0,.952.949h0a.952.952,0,0,0,.951-.952v-9.135a2.228,2.228,0,1,1,4.457,0V355.7a.96.96,0,0,0-.055.317v7.291a.952.952,0,0,0,1.9,0v-6.974a.955.955,0,0,0,.055-.317,2.229,2.229,0,0,1,4.457,0v7.288l-.052,18.241H357.315a.278.278,0,0,1-.123-.029,43.4,43.4,0,0,0-3.673-4.832C350.492,373.266,347.8,371.577,345.516,371.668Zm34.45,19.834H357.9a.573.573,0,0,1-.572-.573v-7.478h23.213v7.478A.573.573,0,0,1,379.966,391.5Z" transform="translate(-339.87 -339.511)"/></svg>