<svg xmlns="http://www.w3.org/2000/svg" width="56.898" height="51.751" viewBox="0 0 56.898 51.751"><defs><style>.a{fill:#40b4e5;}</style></defs><path class="a" d="M666.433,371.671a23.529,23.529,0,0,0-5.588-4.483c-3.075-1.722-11.168-3.574-16.586,1.7l-1.971,1.962-1.567-1.558c-6.419-6.246-15.266-3.954-20.688,1.548-5.1,5.17-7.647,13.668-1.2,20.107l3.111,3.1-.718.719a4.364,4.364,0,0,0,0,6.16l.371.373a4.388,4.388,0,0,0,3.6,1.241,4.347,4.347,0,0,0,1.26,3.435l.371.37a4.421,4.421,0,0,0,3.893,1.2A4.344,4.344,0,0,0,632,410.721l.368.371a4.428,4.428,0,0,0,3.758,1.221,4.352,4.352,0,0,0,1.276,3.211l.37.368a4.368,4.368,0,0,0,6.16,0l3.225-3.223a4.327,4.327,0,0,0,1.006-1.612,4.231,4.231,0,0,0,2.957,1.205,5,5,0,0,0,3.426-1.415,4.332,4.332,0,0,0,1.351-2.916,5.067,5.067,0,0,0,4.3-1.4,4.449,4.449,0,0,0,1.385-3.291,4.127,4.127,0,0,0,3.109-1.205,4.767,4.767,0,0,0,.511-6.452l3-3C674.543,386.263,671.88,377.525,666.433,371.671ZM626.165,399.7a2.133,2.133,0,0,1-2.97,0l-.371-.371a2.109,2.109,0,0,1,0-2.973l4.809-4.808a2.08,2.08,0,0,1,1.483-.611h0a2.089,2.089,0,0,1,1.486.611l.37.371a2.115,2.115,0,0,1,0,2.971Zm5.237,5.047a2.173,2.173,0,0,1-2.973,0l-.37-.371a2.115,2.115,0,0,1,0-2.971l7.656-7.657a2.1,2.1,0,0,1,2.971,0l.371.37a2.107,2.107,0,0,1,0,2.973Zm5.535,4.747a2.163,2.163,0,0,1-2.97,0l-.371-.37a2.117,2.117,0,0,1,0-2.973l5.25-5.248a2.1,2.1,0,0,1,2.971,0l.371.37a2.115,2.115,0,0,1,0,2.971Zm8.627,1.578-3.227,3.222a2.165,2.165,0,0,1-2.969,0l-.37-.368a2.1,2.1,0,0,1,0-2.971l3.222-3.223a2.092,2.092,0,0,1,1.486-.611,2.121,2.121,0,0,1,.751.147,1.1,1.1,0,0,0,.132.2l1.459,1.47a2.123,2.123,0,0,1,.127.65A2.1,2.1,0,0,1,645.563,411.076Zm18.092-17.129-12.123-12.707A1.128,1.128,0,1,0,649.9,382.8l13.5,14.149a2.484,2.484,0,0,1-.265,3.463c-.522.5-1.6,1.133-2.981-.285l-6.8-7.014a1.128,1.128,0,0,0-1.62,1.57l.411.423a.788.788,0,0,0,.06.066l6.326,6.524,0,0a2.075,2.075,0,0,1,.1,3.219,2.412,2.412,0,0,1-3.366.227l-6.955-7.146a1.128,1.128,0,1,0-1.616,1.573l5.837,6a1.139,1.139,0,0,0,.276.5c1.486,1.559.611,2.734.166,3.165a2.367,2.367,0,0,1-3.31.155l-1.7-1.711a4.309,4.309,0,0,0-.812-1.166l-.373-.371a4.319,4.319,0,0,0-2.3-1.2,4.374,4.374,0,0,0-.7-5.251l-.37-.37a4.334,4.334,0,0,0-2.272-1.2,4.363,4.363,0,0,0-.487-5.583l-.37-.371a4.365,4.365,0,0,0-6.162,0l-.371.371a4.281,4.281,0,0,0-1.183-2.2l-.37-.371a4.324,4.324,0,0,0-3.079-1.271h0a4.325,4.325,0,0,0-3.079,1.271l-2.493,2.495-3.112-3.106c-5.358-5.35-3.129-12.525,1.21-16.926,4.5-4.562,11.892-6.984,17.5-1.525l1.551,1.542-6.914,6.878a2.684,2.684,0,0,0-.129,4.037c1.827,1.844,6.679,2.465,9.644-.456l2.6-2.568c1.246-1.13,2.608-.8,4.91-.1,2.747.831,6.162,1.865,9.945-1.12a1.128,1.128,0,1,0-1.4-1.771c-2.857,2.255-5.3,1.514-7.895.73-2.258-.682-4.819-1.456-7.111.622l-2.639,2.6c-2.026,1.993-5.445,1.495-6.456.475-.2-.2-.365-.37.118-.849l10.474-10.424c4.894-4.764,12.32-2.221,13.9-1.335a21.287,21.287,0,0,1,5.04,4.052c4.364,4.69,7.462,12.16,1.835,17.78Z" transform="translate(-614.993 -365.413)"/></svg>