<svg xmlns="http://www.w3.org/2000/svg" width="51.467" height="57.396" viewBox="0 0 51.467 57.396"><defs><style>.a{fill:#40b4e5;}</style></defs><path class="a" d="M508.437,440.329h-1.862a22.949,22.949,0,0,0-12.92-17.145h6.915a2.8,2.8,0,1,0,0-2.192H487.546v-1.555a1.1,1.1,0,0,0-1.1-1.1h-5.3a1.1,1.1,0,0,0-1.1,1.1v1.555H467.03a2.8,2.8,0,1,0,0,2.192h6.915a22.951,22.951,0,0,0-12.92,17.145h-1.863a1.1,1.1,0,0,0-1.1,1.1v5.3a1.1,1.1,0,0,0,1.1,1.1h5.3a1.1,1.1,0,0,0,1.1-1.1v-5.3a1.1,1.1,0,0,0-1.1-1.1h-1.216a20.757,20.757,0,0,1,16.808-16.808v1.217a1.1,1.1,0,0,0,1.1,1.1h5.3a1.1,1.1,0,0,0,1.1-1.1v-1.217a20.756,20.756,0,0,1,16.808,16.807h-1.217a1.1,1.1,0,0,0-1.1,1.1v5.3a1.1,1.1,0,0,0,1.1,1.1h5.3a1.1,1.1,0,0,0,1.1-1.1v-5.3A1.1,1.1,0,0,0,508.437,440.329Zm-1.1,2.192v3.109h-3.109v-3.109Zm-4.2-19.823a.61.61,0,1,1,.61-.61A.611.611,0,0,1,503.137,422.7Zm-17.783-2.165v3.11h-3.109v-3.11Zm-20.892.944a.61.61,0,1,1-.61.611A.611.611,0,0,1,464.463,421.478Zm-1.1,21.043v3.109h-3.109v-3.109Z" transform="translate(-458.066 -418.342)"/><path class="a" d="M500.9,449.323a1.1,1.1,0,0,0-1.057-.807h-5.47a1.1,1.1,0,0,0-1.057.807c-2.9,10.64-4.588,16.038-11.224,22.421a1.1,1.1,0,0,0-.251,1.212l4.957,11.856v6.777a1.1,1.1,0,0,0,1.1,1.1h18.566a1.1,1.1,0,0,0,1.1-1.1v-7c0-.033,0-.066,0-.1l4.824-11.536a1.1,1.1,0,0,0-.252-1.213C505.486,465.363,503.8,459.965,500.9,449.323Zm4.464,36.366v4.805H488.986v-4.805Zm-8.256-8.72a1.3,1.3,0,1,1,1.3-1.3A1.306,1.306,0,0,1,497.1,476.969Zm-1.1-4.622a3.5,3.5,0,1,0,2.192,0V450.708h.8c2.663,9.72,4.561,15.631,11.06,22.09l-4.475,10.7H488.62l-4.474-10.7c6.5-6.462,8.4-12.372,11.06-22.09h.8Z" transform="translate(-471.37 -435.29)"/></svg>