<svg xmlns="http://www.w3.org/2000/svg" width="47" height="41.643" viewBox="0 0 47 41.643"><defs><style>.a{fill:#40b4e5;}</style></defs><path class="a" d="M646.835,302.94a.957.957,0,0,0-1.344-.138l-7.249,5.9a.958.958,0,0,0,0,1.481l7.249,5.906a.955.955,0,1,0,1.206-1.481l-6.341-5.165,6.341-5.166A.954.954,0,0,0,646.835,302.94Z" transform="translate(-629.246 -283.771)"/><path class="a" d="M654.953,302.8a.954.954,0,0,0-1.206,1.479l6.34,5.166-6.34,5.165a.955.955,0,1,0,1.206,1.481l7.249-5.906a.956.956,0,0,0,0-1.481Z" transform="translate(-624.198 -283.771)"/><path class="a" d="M652.179,300.432a.953.953,0,0,0-1.133.734l-3.76,17.583a.955.955,0,0,0,.734,1.133,1.048,1.048,0,0,0,.2.02.954.954,0,0,0,.932-.754l3.76-17.583A.955.955,0,0,0,652.179,300.432Z" transform="translate(-626.194 -284.48)"/><path class="a" d="M677.416,288.393H632.324a.955.955,0,0,0-.954.954v39.734a.955.955,0,0,0,.954.954h45.091a.955.955,0,0,0,.954-.954V289.347A.955.955,0,0,0,677.416,288.393Zm-.953,1.909v7.1H633.279v-7.1Zm-43.183,37.825V299.31h43.183v28.818Z" transform="translate(-631.37 -288.393)"/><ellipse class="a" cx="1.926" cy="1.926" rx="1.926" ry="1.926" transform="translate(38.438 3.91)"/><path class="a" d="M657.439,295.2a1.926,1.926,0,1,0-1.926-1.926A1.927,1.927,0,0,0,657.439,295.2Z" transform="translate(-623.508 -287.432)"/></svg>