<svg xmlns="http://www.w3.org/2000/svg" width="61.036" height="50.414" viewBox="0 0 61.036 50.414"><defs><style>.a{fill:#40b4e5;}</style></defs><g transform="translate(-402.471 -80.938)"><path class="a" d="M463.021,97.531a.972.972,0,0,0-.972,0l-11.928,6.8V96.3a2.927,2.927,0,0,0-2.924-2.925H416.89a.949.949,0,0,0,.193-.553V86.863h14.749c.8,2.325,4.428,3.979,9.067,3.979,5.258,0,9.223-2.13,9.223-4.954s-3.965-4.95-9.223-4.95c-4.638,0-8.268,1.653-9.067,3.976H416.108a.974.974,0,0,0-.975.974v6.931a.949.949,0,0,0,.193.553H405.4a2.928,2.928,0,0,0-2.925,2.925v32.132a2.927,2.927,0,0,0,2.925,2.924h41.8a2.927,2.927,0,0,0,2.924-2.924v-7.674l11.947,6.455a.975.975,0,0,0,.962-.019.979.979,0,0,0,.476-.838V98.375A.976.976,0,0,0,463.021,97.531ZM440.9,82.887c4.163,0,7.274,1.584,7.274,3s-3.11,3.005-7.274,3.005-7.285-1.586-7.285-3.005S436.728,82.887,440.9,82.887Zm7.274,45.541a.976.976,0,0,1-.975.975H405.4a.976.976,0,0,1-.975-.975V96.3a.976.976,0,0,1,.975-.975h41.8a.976.976,0,0,1,.975.975Zm13.385-3.711-10.62-5.736a.953.953,0,0,0-.816-.04v-12.8a.968.968,0,0,0,.835-.045l10.6-6.043Z" transform="translate(0)"/><path class="a" d="M445.795,117.558a5.619,5.619,0,1,0,5.616,5.617A5.624,5.624,0,0,0,445.795,117.558Zm0,9.288a3.669,3.669,0,1,1,3.667-3.671A3.675,3.675,0,0,1,445.795,126.846Z" transform="translate(-9.961 -9.674)"/><path class="a" d="M419.867,117.558a5.619,5.619,0,1,0,5.62,5.617A5.623,5.623,0,0,0,419.867,117.558Zm0,9.288a3.669,3.669,0,1,1,3.671-3.671A3.675,3.675,0,0,1,419.867,126.846Z" transform="translate(-3.111 -9.674)"/></g></svg>