<svg xmlns="http://www.w3.org/2000/svg" width="56.859" height="56.85" viewBox="0 0 56.859 56.85"><defs><style>.a{fill:#40b4e5;}</style></defs><g transform="translate(-298.752 -87.38)"><path class="a" d="M323.957,104.884a3.181,3.181,0,0,1,3.315,3.019.864.864,0,1,0,1.729,0,4.846,4.846,0,0,0-4.179-4.675v-1.334a.864.864,0,0,0-1.729,0v1.334a4.846,4.846,0,0,0-4.179,4.675,4.907,4.907,0,0,0,5.042,4.747,3.032,3.032,0,1,1-3.314,3.019.864.864,0,0,0-1.729,0,4.847,4.847,0,0,0,4.179,4.676v1.334a.864.864,0,0,0,1.729,0v-1.334A4.847,4.847,0,0,0,329,115.669a4.908,4.908,0,0,0-5.043-4.747,3.032,3.032,0,1,1,0-6.037Z" transform="translate(-2.444 -1.655)"/><path class="a" d="M322.4,94.666a16.348,16.348,0,1,0,16.349,16.349A16.367,16.367,0,0,0,322.4,94.666Zm0,30.968a14.62,14.62,0,1,1,14.62-14.619A14.636,14.636,0,0,1,322.4,125.634Z" transform="translate(-0.885 -0.883)"/><path class="a" d="M355.06,137.666l-14.726-14.726a22.752,22.752,0,1,0-6.012,6.012l14.726,14.726a1.939,1.939,0,0,0,1.4.552,3.194,3.194,0,0,0,2.2-1l1.963-1.964a3.4,3.4,0,0,0,.955-1.732A2.052,2.052,0,0,0,355.06,137.666ZM306.641,125a21.032,21.032,0,1,1,14.872,6.161A20.893,20.893,0,0,1,306.641,125Zm47.227,14.209a1.688,1.688,0,0,1-.478.831l-1.964,1.963c-.5.5-1.047.556-1.155.448l-14.545-14.544a23.112,23.112,0,0,0,1.882-1.686,23.422,23.422,0,0,0,1.685-1.881l14.544,14.544A.415.415,0,0,1,353.868,139.213Z"/></g></svg>